<svg width="77" height="74" viewBox="0 0 77 74" fill="none" xmlns="http://www.w3.org/2000/svg">
<g filter="url(#filter0_d_236_128)">
<path d="M73.5992 68.3806C73.5992 68.6023 73.4407 68.7953 73.2233 68.8416C63.1678 70.9827 57.5449 71.0166 48.1119 68.8474C47.8984 68.7983 47.7449 68.6071 47.7448 68.3884V63.6619C57.4245 65.9748 63.1387 65.7329 73.5992 63.6599V68.3806Z" fill="url(#paint0_linear_236_128)" stroke="url(#paint1_linear_236_128)" stroke-width="0.0857294"/>
<g filter="url(#filter1_d_236_128)">
<ellipse cx="60.6716" cy="63.4841" rx="12.97" ry="2.36843" fill="url(#paint2_linear_236_128)"/>
<path d="M60.6714 61.1587C64.2512 61.1587 67.4916 61.424 69.8354 61.8521C71.0074 62.0661 71.9531 62.3206 72.605 62.6021C72.9309 62.7428 73.1812 62.8888 73.3491 63.0386C73.5171 63.1885 73.599 63.3376 73.5991 63.4839C73.5991 63.6303 73.5172 63.7792 73.3491 63.9292C73.1812 64.079 72.9311 64.2259 72.605 64.3667C71.9531 64.6481 71.0074 64.9027 69.8354 65.1167C67.4916 65.5447 64.2512 65.8101 60.6714 65.8101C57.0918 65.81 53.8521 65.5447 51.5083 65.1167C50.336 64.9026 49.3897 64.6482 48.7378 64.3667C48.4117 64.2259 48.1616 64.079 47.9937 63.9292C47.8257 63.7793 47.7446 63.6302 47.7446 63.4839C47.7447 63.3376 47.8257 63.1885 47.9937 63.0386C48.1615 62.8888 48.4118 62.7428 48.7378 62.6021C49.3897 62.3206 50.336 62.0661 51.5083 61.8521C53.8521 61.4241 57.0917 61.1587 60.6714 61.1587Z" stroke="white" stroke-opacity="0.2" stroke-width="0.0857294"/>
</g>
</g>
<g filter="url(#filter2_d_236_128)">
<path d="M44.2645 68.3806C44.2645 68.6023 44.106 68.7953 43.8885 68.8416C33.8331 70.9827 28.2102 71.0166 18.7772 68.8474C18.5637 68.7983 18.4102 68.6071 18.41 68.3884V63.6619C28.0898 65.9748 33.804 65.7329 44.2645 63.6599V68.3806Z" fill="url(#paint3_linear_236_128)" stroke="url(#paint4_linear_236_128)" stroke-width="0.0857294"/>
<g filter="url(#filter3_d_236_128)">
<ellipse cx="31.3371" cy="63.4841" rx="12.97" ry="2.36843" fill="url(#paint5_linear_236_128)"/>
<path d="M31.3369 61.1587C34.9167 61.1587 38.1571 61.424 40.501 61.8521C41.673 62.0661 42.6186 62.3206 43.2705 62.6021C43.5964 62.7428 43.8467 62.8888 44.0146 63.0386C44.1826 63.1885 44.2646 63.3376 44.2646 63.4839C44.2646 63.6303 44.1827 63.7792 44.0146 63.9292C43.8467 64.079 43.5966 64.2259 43.2705 64.3667C42.6186 64.6481 41.6729 64.9027 40.501 65.1167C38.1571 65.5447 34.9167 65.8101 31.3369 65.8101C27.7573 65.81 24.5176 65.5447 22.1738 65.1167C21.0015 64.9026 20.0553 64.6482 19.4033 64.3667C19.0772 64.2259 18.8271 64.079 18.6592 63.9292C18.4912 63.7793 18.4102 63.6302 18.4102 63.4839C18.4103 63.3376 18.4912 63.1885 18.6592 63.0386C18.8271 62.8888 19.0774 62.7428 19.4033 62.6021C20.0553 62.3206 21.0015 62.0661 22.1738 61.8521C24.5176 61.4241 27.7572 61.1587 31.3369 61.1587Z" stroke="white" stroke-opacity="0.2" stroke-width="0.0857294"/>
</g>
</g>
<g filter="url(#filter4_d_236_128)">
<path d="M73.5992 60.8806C73.5992 61.1023 73.4407 61.2953 73.2233 61.3416C63.1678 63.4827 57.5449 63.5166 48.1119 61.3474C47.8984 61.2983 47.7449 61.1071 47.7448 60.8884V56.1619C57.4245 58.4748 63.1387 58.2329 73.5992 56.1599V60.8806Z" fill="url(#paint6_linear_236_128)" stroke="url(#paint7_linear_236_128)" stroke-width="0.0857294"/>
<g filter="url(#filter5_d_236_128)">
<ellipse cx="60.6716" cy="55.9841" rx="12.97" ry="2.36843" fill="url(#paint8_linear_236_128)"/>
<path d="M60.6714 53.6587C64.2512 53.6587 67.4916 53.924 69.8354 54.3521C71.0074 54.5661 71.9531 54.8206 72.605 55.1021C72.9309 55.2428 73.1812 55.3888 73.3491 55.5386C73.5171 55.6885 73.599 55.8376 73.5991 55.9839C73.5991 56.1303 73.5172 56.2792 73.3491 56.4292C73.1812 56.579 72.9311 56.7259 72.605 56.8667C71.9531 57.1481 71.0074 57.4027 69.8354 57.6167C67.4916 58.0447 64.2512 58.3101 60.6714 58.3101C57.0918 58.31 53.8521 58.0447 51.5083 57.6167C50.336 57.4026 49.3897 57.1482 48.7378 56.8667C48.4117 56.7259 48.1616 56.579 47.9937 56.4292C47.8257 56.2793 47.7446 56.1302 47.7446 55.9839C47.7447 55.8376 47.8257 55.6885 47.9937 55.5386C48.1615 55.3888 48.4118 55.2428 48.7378 55.1021C49.3897 54.8206 50.336 54.5661 51.5083 54.3521C53.8521 53.9241 57.0917 53.6587 60.6714 53.6587Z" stroke="white" stroke-opacity="0.2" stroke-width="0.0857294"/>
</g>
</g>
<g filter="url(#filter6_d_236_128)">
<path d="M44.2645 60.8806C44.2645 61.1023 44.106 61.2953 43.8885 61.3416C33.8331 63.4827 28.2102 63.5166 18.7772 61.3474C18.5637 61.2983 18.4102 61.1071 18.41 60.8884V56.1619C28.0898 58.4748 33.804 58.2329 44.2645 56.1599V60.8806Z" fill="url(#paint9_linear_236_128)" stroke="url(#paint10_linear_236_128)" stroke-width="0.0857294"/>
<g filter="url(#filter7_d_236_128)">
<ellipse cx="31.3371" cy="55.9841" rx="12.97" ry="2.36843" fill="url(#paint11_linear_236_128)"/>
<path d="M31.3369 53.6587C34.9167 53.6587 38.1571 53.924 40.501 54.3521C41.673 54.5661 42.6186 54.8206 43.2705 55.1021C43.5964 55.2428 43.8467 55.3888 44.0146 55.5386C44.1826 55.6885 44.2646 55.8376 44.2646 55.9839C44.2646 56.1303 44.1827 56.2792 44.0146 56.4292C43.8467 56.579 43.5966 56.7259 43.2705 56.8667C42.6186 57.1481 41.6729 57.4027 40.501 57.6167C38.1571 58.0447 34.9167 58.3101 31.3369 58.3101C27.7573 58.31 24.5176 58.0447 22.1738 57.6167C21.0015 57.4026 20.0553 57.1482 19.4033 56.8667C19.0772 56.7259 18.8271 56.579 18.6592 56.4292C18.4912 56.2793 18.4102 56.1302 18.4102 55.9839C18.4103 55.8376 18.4912 55.6885 18.6592 55.5386C18.8271 55.3888 19.0774 55.2428 19.4033 55.1021C20.0553 54.8206 21.0015 54.5661 22.1738 54.3521C24.5176 53.9241 27.7572 53.6587 31.3369 53.6587Z" stroke="white" stroke-opacity="0.2" stroke-width="0.0857294"/>
</g>
<g filter="url(#filter8_f_236_128)">
<ellipse cx="31.5229" cy="56.08" rx="6.9643" ry="0.535716" fill="#925FE2"/>
</g>
</g>
<g filter="url(#filter9_d_236_128)">
<path d="M73.588 53.4033C73.588 53.625 73.4294 53.818 73.212 53.8643C63.1566 56.0054 57.5337 56.0393 48.1007 53.8701C47.8872 53.821 47.7336 53.6298 47.7335 53.4111V48.6846C57.4133 50.9975 63.1275 50.7556 73.588 48.6826V53.4033Z" fill="url(#paint12_linear_236_128)" stroke="url(#paint13_linear_236_128)" stroke-width="0.0857294"/>
<g filter="url(#filter10_d_236_128)">
<ellipse cx="60.6605" cy="48.5067" rx="12.97" ry="2.36843" fill="url(#paint14_linear_236_128)"/>
<path d="M60.6603 46.1813C64.2401 46.1813 67.4805 46.4466 69.8243 46.8746C70.9963 47.0887 71.942 47.3432 72.5939 47.6246C72.9198 47.7653 73.1701 47.9114 73.338 48.0612C73.506 48.2111 73.5879 48.3601 73.588 48.5065C73.588 48.6529 73.5061 48.8018 73.338 48.9518C73.1701 49.1016 72.92 49.2485 72.5939 49.3893C71.942 49.6707 70.9963 49.9253 69.8243 50.1393C67.4805 50.5673 64.2401 50.8326 60.6603 50.8326C57.0806 50.8326 53.841 50.5673 51.4972 50.1393C50.3249 49.9252 49.3786 49.6708 48.7267 49.3893C48.4006 49.2485 48.1504 49.1016 47.9825 48.9518C47.8146 48.8018 47.7335 48.6528 47.7335 48.5065C47.7336 48.3601 47.8146 48.2111 47.9825 48.0612C48.1504 47.9114 48.4007 47.7654 48.7267 47.6246C49.3786 47.3432 50.3249 47.0887 51.4972 46.8746C53.841 46.4466 57.0806 46.1813 60.6603 46.1813Z" stroke="white" stroke-opacity="0.2" stroke-width="0.0857294"/>
</g>
</g>
<g filter="url(#filter11_d_236_128)">
<path d="M73.588 45.9484C73.588 46.1701 73.4294 46.363 73.212 46.4093C63.1566 48.5505 57.5337 48.5843 48.1007 46.4152C47.8872 46.3661 47.7336 46.1748 47.7335 45.9562V41.2296C57.4133 43.5426 63.1275 43.3006 73.588 41.2277V45.9484Z" fill="url(#paint15_linear_236_128)" stroke="url(#paint16_linear_236_128)" stroke-width="0.0857294"/>
<g filter="url(#filter12_d_236_128)">
<ellipse cx="60.6605" cy="41.0519" rx="12.97" ry="2.36843" fill="url(#paint17_linear_236_128)"/>
<path d="M60.6603 38.7264C64.2401 38.7264 67.4805 38.9918 69.8243 39.4198C70.9963 39.6338 71.942 39.8884 72.5939 40.1698C72.9198 40.3105 73.1701 40.4566 73.338 40.6063C73.506 40.7562 73.5879 40.9053 73.588 41.0516C73.588 41.198 73.5061 41.347 73.338 41.4969C73.1701 41.6468 72.92 41.7937 72.5939 41.9344C71.942 42.2158 70.9963 42.4704 69.8243 42.6844C67.4805 43.1125 64.2401 43.3778 60.6603 43.3778C57.0806 43.3778 53.841 43.1124 51.4972 42.6844C50.3249 42.4704 49.3786 42.2159 48.7267 41.9344C48.4006 41.7937 48.1504 41.6468 47.9825 41.4969C47.8146 41.347 47.7335 41.198 47.7335 41.0516C47.7336 40.9053 47.8146 40.7562 47.9825 40.6063C48.1504 40.4565 48.4007 40.3105 48.7267 40.1698C49.3786 39.8883 50.3249 39.6339 51.4972 39.4198C53.841 38.9918 57.0806 38.7265 60.6603 38.7264Z" stroke="white" stroke-opacity="0.2" stroke-width="0.0857294"/>
</g>
</g>
<g filter="url(#filter13_d_236_128)">
<path d="M16.9767 20.9153C14.1514 21.6448 12.0944 21.6357 8.88978 21.1018C8.67969 21.0667 8.48718 21.228 8.48718 21.441V47.6701C8.48718 47.8465 8.62104 47.9942 8.79669 48.0104C11.5418 48.2639 13.6843 48.2367 17.1399 48.0566C18.0592 48.0087 18.9777 47.884 19.8735 47.6717C28.4316 45.6435 33.3434 43.0635 40.2572 36.9279C41.2504 36.0466 42.3826 35.3062 43.6678 34.9727C45.9581 34.3783 47.8743 34.4453 50.8803 35.3628C51.2152 35.465 51.5587 35.2178 51.5587 34.8676V8.66084C51.5587 8.38987 51.345 8.16502 51.0746 8.14821C42.8554 7.63741 39.3761 8.21785 33.2928 10.2087C27.5164 12.3092 24.6551 14.3944 19.6611 19.3319C18.9102 20.0744 17.9992 20.6513 16.9767 20.9153Z" fill="url(#paint18_linear_236_128)"/>
<path d="M16.9767 20.9153C14.1514 21.6448 12.0944 21.6357 8.88978 21.1018C8.67969 21.0667 8.48718 21.228 8.48718 21.441V47.6701C8.48718 47.8465 8.62104 47.9942 8.79669 48.0104C11.5418 48.2639 13.6843 48.2367 17.1399 48.0566C18.0592 48.0087 18.9777 47.884 19.8735 47.6717C28.4316 45.6435 33.3434 43.0635 40.2572 36.9279C41.2504 36.0466 42.3826 35.3062 43.6678 34.9727C45.9581 34.3783 47.8743 34.4453 50.8803 35.3628C51.2152 35.465 51.5587 35.2178 51.5587 34.8676V8.66084C51.5587 8.38987 51.345 8.16502 51.0746 8.14821C42.8554 7.63741 39.3761 8.21785 33.2928 10.2087C27.5164 12.3092 24.6551 14.3944 19.6611 19.3319C18.9102 20.0744 17.9992 20.6513 16.9767 20.9153Z" stroke="url(#paint19_linear_236_128)" stroke-width="0.171459"/>
</g>
<g filter="url(#filter14_d_236_128)">
<circle cx="46.5978" cy="29.2639" r="1.69129" fill="url(#paint20_linear_236_128)"/>
</g>
<g filter="url(#filter15_d_236_128)">
<circle cx="13.2227" cy="26.5579" r="1.69129" fill="url(#paint21_linear_236_128)"/>
</g>
<g filter="url(#filter16_dd_236_128)">
<circle cx="29.9104" cy="27.9109" r="7.55443" fill="url(#paint22_linear_236_128)" shape-rendering="crispEdges"/>
</g>
<g filter="url(#filter17_d_236_128)">
<path d="M27.5278 24.3238C27.8103 24.001 28.0753 23.7237 28.3857 23.4222C28.7331 23.0847 29.283 23.0844 29.643 23.4084C29.9227 23.6602 29.9706 24.0864 29.7352 24.38C29.5866 24.5653 29.4448 24.7258 29.2861 24.8814C28.9859 25.1759 28.7826 25.5635 28.7826 25.9841V26.0335C28.7826 26.418 29.0168 26.766 29.3777 26.8986C29.441 26.9218 29.5024 26.9439 29.5623 26.9651C30.4464 27.2771 31.3873 27.5348 32.0667 28.1808C32.1542 28.264 32.2371 28.3503 32.3176 28.4417C32.6986 28.8742 32.8417 29.4576 32.8417 30.0341C32.8417 30.7061 32.6466 31.3761 32.1985 31.8769C31.8981 32.2127 31.5978 32.4837 31.2285 32.7615C30.873 33.0288 30.3724 32.9484 30.0907 32.6042C29.7996 32.2483 29.8369 31.727 30.1759 31.4163L30.5908 31.036C30.8084 30.8365 30.9747 30.5772 30.9992 30.2831C31.0006 30.2664 31.0018 30.2498 31.0028 30.2332C31.036 29.695 30.6271 29.251 30.137 29.0262C29.4882 28.7287 28.93 28.4469 28.2954 28.0981C27.462 27.64 26.9002 26.8403 26.9284 25.8897C26.9449 25.3332 27.1612 24.7427 27.5278 24.3238Z" fill="url(#paint23_linear_236_128)"/>
<path d="M28.4154 23.4532C28.746 23.1321 29.2707 23.131 29.6146 23.4406C29.8783 23.6781 29.9217 24.079 29.7015 24.3536C29.5539 24.5378 29.4133 24.6967 29.2562 24.8507C28.9499 25.1512 28.7396 25.5498 28.7396 25.9845V26.0333C28.7396 26.435 28.9844 26.7995 29.3627 26.9386C29.4261 26.9619 29.4881 26.9848 29.5482 27.006C30.4373 27.3197 31.3666 27.5741 32.0375 28.212C32.124 28.2943 32.2059 28.3795 32.2855 28.4698C32.6573 28.8919 32.7992 29.4641 32.7992 30.0343C32.7991 30.6984 32.6057 31.3577 32.1664 31.8488C31.8681 32.1821 31.5697 32.4515 31.2025 32.7277C30.8671 32.9796 30.3926 32.9048 30.1244 32.5773C29.8477 32.2392 29.8827 31.7438 30.2045 31.4484L30.6195 31.0675C30.8421 30.8634 31.0166 30.5946 31.0424 30.2863C31.0438 30.2694 31.0443 30.2522 31.0453 30.2355C31.0798 29.6723 30.6528 29.2158 30.1547 28.9874C29.5069 28.6904 28.9495 28.409 28.3158 28.0607C27.4935 27.6086 26.9435 26.8219 26.9711 25.8907C26.9873 25.3435 27.2004 24.7625 27.5599 24.3517C27.8415 24.03 28.106 23.7539 28.4154 23.4532Z" stroke="white" stroke-opacity="0.33" stroke-width="0.0857294"/>
<rect x="30.6995" y="21.7095" width="1.80404" height="4.0591" rx="0.902022" fill="url(#paint24_linear_236_128)"/>
<rect x="30.7423" y="21.7523" width="1.71831" height="3.97337" rx="0.859157" stroke="white" stroke-opacity="0.33" stroke-width="0.0857294"/>
<rect x="27.3169" y="30.2787" width="1.80404" height="4.0591" rx="0.902022" fill="url(#paint25_linear_236_128)"/>
<rect x="27.3598" y="30.3216" width="1.71831" height="3.97337" rx="0.859157" stroke="white" stroke-opacity="0.33" stroke-width="0.0857294"/>
</g>
<defs>
<filter id="filter0_d_236_128" x="47.0158" y="60.6013" width="29.0263" height="12.4744" filterUnits="userSpaceOnUse" color-interpolation-filters="sRGB">
<feFlood flood-opacity="0" result="BackgroundImageFix"/>
<feColorMatrix in="SourceAlpha" type="matrix" values="0 0 0 0 0 0 0 0 0 0 0 0 0 0 0 0 0 0 127 0" result="hardAlpha"/>
<feOffset dx="0.857294" dy="1.02875"/>
<feGaussianBlur stdDeviation="0.771564"/>
<feComposite in2="hardAlpha" operator="out"/>
<feColorMatrix type="matrix" values="0 0 0 0 0.228976 0 0 0 0 0.34229 0 0 0 0 0.504167 0 0 0 0.15 0"/>
<feBlend mode="normal" in2="BackgroundImageFix" result="effect1_dropShadow_236_128"/>
<feBlend mode="normal" in="SourceGraphic" in2="effect1_dropShadow_236_128" result="shape"/>
</filter>
<filter id="filter1_d_236_128" x="46.33" y="60.2584" width="28.6833" height="7.48016" filterUnits="userSpaceOnUse" color-interpolation-filters="sRGB">
<feFlood flood-opacity="0" result="BackgroundImageFix"/>
<feColorMatrix in="SourceAlpha" type="matrix" values="0 0 0 0 0 0 0 0 0 0 0 0 0 0 0 0 0 0 127 0" result="hardAlpha"/>
<feOffset dy="0.514376"/>
<feGaussianBlur stdDeviation="0.685835"/>
<feComposite in2="hardAlpha" operator="out"/>
<feColorMatrix type="matrix" values="0 0 0 0 0.6825 0 0 0 0 0.782885 0 0 0 0 0.9 0 0 0 0.5 0"/>
<feBlend mode="normal" in2="BackgroundImageFix" result="effect1_dropShadow_236_128"/>
<feBlend mode="normal" in="SourceGraphic" in2="effect1_dropShadow_236_128" result="shape"/>
</filter>
<filter id="filter2_d_236_128" x="17.6812" y="60.6013" width="29.0263" height="12.4744" filterUnits="userSpaceOnUse" color-interpolation-filters="sRGB">
<feFlood flood-opacity="0" result="BackgroundImageFix"/>
<feColorMatrix in="SourceAlpha" type="matrix" values="0 0 0 0 0 0 0 0 0 0 0 0 0 0 0 0 0 0 127 0" result="hardAlpha"/>
<feOffset dx="0.857294" dy="1.02875"/>
<feGaussianBlur stdDeviation="0.771564"/>
<feComposite in2="hardAlpha" operator="out"/>
<feColorMatrix type="matrix" values="0 0 0 0 0.228976 0 0 0 0 0.34229 0 0 0 0 0.504167 0 0 0 0.15 0"/>
<feBlend mode="normal" in2="BackgroundImageFix" result="effect1_dropShadow_236_128"/>
<feBlend mode="normal" in="SourceGraphic" in2="effect1_dropShadow_236_128" result="shape"/>
</filter>
<filter id="filter3_d_236_128" x="16.9955" y="60.2584" width="28.6833" height="7.48016" filterUnits="userSpaceOnUse" color-interpolation-filters="sRGB">
<feFlood flood-opacity="0" result="BackgroundImageFix"/>
<feColorMatrix in="SourceAlpha" type="matrix" values="0 0 0 0 0 0 0 0 0 0 0 0 0 0 0 0 0 0 127 0" result="hardAlpha"/>
<feOffset dy="0.514376"/>
<feGaussianBlur stdDeviation="0.685835"/>
<feComposite in2="hardAlpha" operator="out"/>
<feColorMatrix type="matrix" values="0 0 0 0 0.6825 0 0 0 0 0.782885 0 0 0 0 0.9 0 0 0 0.5 0"/>
<feBlend mode="normal" in2="BackgroundImageFix" result="effect1_dropShadow_236_128"/>
<feBlend mode="normal" in="SourceGraphic" in2="effect1_dropShadow_236_128" result="shape"/>
</filter>
<filter id="filter4_d_236_128" x="47.0158" y="53.1013" width="29.0263" height="12.4744" filterUnits="userSpaceOnUse" color-interpolation-filters="sRGB">
<feFlood flood-opacity="0" result="BackgroundImageFix"/>
<feColorMatrix in="SourceAlpha" type="matrix" values="0 0 0 0 0 0 0 0 0 0 0 0 0 0 0 0 0 0 127 0" result="hardAlpha"/>
<feOffset dx="0.857294" dy="1.02875"/>
<feGaussianBlur stdDeviation="0.771564"/>
<feComposite in2="hardAlpha" operator="out"/>
<feColorMatrix type="matrix" values="0 0 0 0 0.228976 0 0 0 0 0.34229 0 0 0 0 0.504167 0 0 0 0.15 0"/>
<feBlend mode="normal" in2="BackgroundImageFix" result="effect1_dropShadow_236_128"/>
<feBlend mode="normal" in="SourceGraphic" in2="effect1_dropShadow_236_128" result="shape"/>
</filter>
<filter id="filter5_d_236_128" x="46.33" y="52.7584" width="28.6833" height="7.48016" filterUnits="userSpaceOnUse" color-interpolation-filters="sRGB">
<feFlood flood-opacity="0" result="BackgroundImageFix"/>
<feColorMatrix in="SourceAlpha" type="matrix" values="0 0 0 0 0 0 0 0 0 0 0 0 0 0 0 0 0 0 127 0" result="hardAlpha"/>
<feOffset dy="0.514376"/>
<feGaussianBlur stdDeviation="0.685835"/>
<feComposite in2="hardAlpha" operator="out"/>
<feColorMatrix type="matrix" values="0 0 0 0 0.6825 0 0 0 0 0.782885 0 0 0 0 0.9 0 0 0 0.5 0"/>
<feBlend mode="normal" in2="BackgroundImageFix" result="effect1_dropShadow_236_128"/>
<feBlend mode="normal" in="SourceGraphic" in2="effect1_dropShadow_236_128" result="shape"/>
</filter>
<filter id="filter6_d_236_128" x="17.6812" y="53.1013" width="29.0263" height="12.4744" filterUnits="userSpaceOnUse" color-interpolation-filters="sRGB">
<feFlood flood-opacity="0" result="BackgroundImageFix"/>
<feColorMatrix in="SourceAlpha" type="matrix" values="0 0 0 0 0 0 0 0 0 0 0 0 0 0 0 0 0 0 127 0" result="hardAlpha"/>
<feOffset dx="0.857294" dy="1.02875"/>
<feGaussianBlur stdDeviation="0.771564"/>
<feComposite in2="hardAlpha" operator="out"/>
<feColorMatrix type="matrix" values="0 0 0 0 0.228976 0 0 0 0 0.34229 0 0 0 0 0.504167 0 0 0 0.15 0"/>
<feBlend mode="normal" in2="BackgroundImageFix" result="effect1_dropShadow_236_128"/>
<feBlend mode="normal" in="SourceGraphic" in2="effect1_dropShadow_236_128" result="shape"/>
</filter>
<filter id="filter7_d_236_128" x="16.9955" y="52.7584" width="28.6833" height="7.48016" filterUnits="userSpaceOnUse" color-interpolation-filters="sRGB">
<feFlood flood-opacity="0" result="BackgroundImageFix"/>
<feColorMatrix in="SourceAlpha" type="matrix" values="0 0 0 0 0 0 0 0 0 0 0 0 0 0 0 0 0 0 127 0" result="hardAlpha"/>
<feOffset dy="0.514376"/>
<feGaussianBlur stdDeviation="0.685835"/>
<feComposite in2="hardAlpha" operator="out"/>
<feColorMatrix type="matrix" values="0 0 0 0 0.6825 0 0 0 0 0.782885 0 0 0 0 0.9 0 0 0 0.5 0"/>
<feBlend mode="normal" in2="BackgroundImageFix" result="effect1_dropShadow_236_128"/>
<feBlend mode="normal" in="SourceGraphic" in2="effect1_dropShadow_236_128" result="shape"/>
</filter>
<filter id="filter8_f_236_128" x="21.1294" y="52.1151" width="20.7869" height="7.92976" filterUnits="userSpaceOnUse" color-interpolation-filters="sRGB">
<feFlood flood-opacity="0" result="BackgroundImageFix"/>
<feBlend mode="normal" in="SourceGraphic" in2="BackgroundImageFix" result="shape"/>
<feGaussianBlur stdDeviation="1.71459" result="effect1_foregroundBlur_236_128"/>
</filter>
<filter id="filter9_d_236_128" x="47.0047" y="45.6239" width="29.0262" height="12.4746" filterUnits="userSpaceOnUse" color-interpolation-filters="sRGB">
<feFlood flood-opacity="0" result="BackgroundImageFix"/>
<feColorMatrix in="SourceAlpha" type="matrix" values="0 0 0 0 0 0 0 0 0 0 0 0 0 0 0 0 0 0 127 0" result="hardAlpha"/>
<feOffset dx="0.857294" dy="1.02875"/>
<feGaussianBlur stdDeviation="0.771564"/>
<feComposite in2="hardAlpha" operator="out"/>
<feColorMatrix type="matrix" values="0 0 0 0 0.228976 0 0 0 0 0.34229 0 0 0 0 0.504167 0 0 0 0.15 0"/>
<feBlend mode="normal" in2="BackgroundImageFix" result="effect1_dropShadow_236_128"/>
<feBlend mode="normal" in="SourceGraphic" in2="effect1_dropShadow_236_128" result="shape"/>
</filter>
<filter id="filter10_d_236_128" x="46.3189" y="45.281" width="28.6833" height="7.48016" filterUnits="userSpaceOnUse" color-interpolation-filters="sRGB">
<feFlood flood-opacity="0" result="BackgroundImageFix"/>
<feColorMatrix in="SourceAlpha" type="matrix" values="0 0 0 0 0 0 0 0 0 0 0 0 0 0 0 0 0 0 127 0" result="hardAlpha"/>
<feOffset dy="0.514376"/>
<feGaussianBlur stdDeviation="0.685835"/>
<feComposite in2="hardAlpha" operator="out"/>
<feColorMatrix type="matrix" values="0 0 0 0 0.6825 0 0 0 0 0.782885 0 0 0 0 0.9 0 0 0 0.5 0"/>
<feBlend mode="normal" in2="BackgroundImageFix" result="effect1_dropShadow_236_128"/>
<feBlend mode="normal" in="SourceGraphic" in2="effect1_dropShadow_236_128" result="shape"/>
</filter>
<filter id="filter11_d_236_128" x="47.0047" y="38.1691" width="29.0262" height="12.4744" filterUnits="userSpaceOnUse" color-interpolation-filters="sRGB">
<feFlood flood-opacity="0" result="BackgroundImageFix"/>
<feColorMatrix in="SourceAlpha" type="matrix" values="0 0 0 0 0 0 0 0 0 0 0 0 0 0 0 0 0 0 127 0" result="hardAlpha"/>
<feOffset dx="0.857294" dy="1.02875"/>
<feGaussianBlur stdDeviation="0.771564"/>
<feComposite in2="hardAlpha" operator="out"/>
<feColorMatrix type="matrix" values="0 0 0 0 0.228976 0 0 0 0 0.34229 0 0 0 0 0.504167 0 0 0 0.15 0"/>
<feBlend mode="normal" in2="BackgroundImageFix" result="effect1_dropShadow_236_128"/>
<feBlend mode="normal" in="SourceGraphic" in2="effect1_dropShadow_236_128" result="shape"/>
</filter>
<filter id="filter12_d_236_128" x="46.3189" y="37.8262" width="28.6833" height="7.48016" filterUnits="userSpaceOnUse" color-interpolation-filters="sRGB">
<feFlood flood-opacity="0" result="BackgroundImageFix"/>
<feColorMatrix in="SourceAlpha" type="matrix" values="0 0 0 0 0 0 0 0 0 0 0 0 0 0 0 0 0 0 127 0" result="hardAlpha"/>
<feOffset dy="0.514376"/>
<feGaussianBlur stdDeviation="0.685835"/>
<feComposite in2="hardAlpha" operator="out"/>
<feColorMatrix type="matrix" values="0 0 0 0 0.6825 0 0 0 0 0.782885 0 0 0 0 0.9 0 0 0 0.5 0"/>
<feBlend mode="normal" in2="BackgroundImageFix" result="effect1_dropShadow_236_128"/>
<feBlend mode="normal" in="SourceGraphic" in2="effect1_dropShadow_236_128" result="shape"/>
</filter>
<filter id="filter13_d_236_128" x="1.03712e-05" y="-1.78814e-05" width="63.818" height="60.9698" filterUnits="userSpaceOnUse" color-interpolation-filters="sRGB">
<feFlood flood-opacity="0" result="BackgroundImageFix"/>
<feColorMatrix in="SourceAlpha" type="matrix" values="0 0 0 0 0 0 0 0 0 0 0 0 0 0 0 0 0 0 127 0" result="hardAlpha"/>
<feOffset dx="1.88605" dy="2.40042"/>
<feGaussianBlur stdDeviation="5.14376"/>
<feComposite in2="hardAlpha" operator="out"/>
<feColorMatrix type="matrix" values="0 0 0 0 0.386111 0 0 0 0 0.465605 0 0 0 0 0.579167 0 0 0 0.25 0"/>
<feBlend mode="normal" in2="BackgroundImageFix" result="effect1_dropShadow_236_128"/>
<feBlend mode="normal" in="SourceGraphic" in2="effect1_dropShadow_236_128" result="shape"/>
</filter>
<filter id="filter14_d_236_128" x="44.2207" y="27.2297" width="4.75424" height="4.75424" filterUnits="userSpaceOnUse" color-interpolation-filters="sRGB">
<feFlood flood-opacity="0" result="BackgroundImageFix"/>
<feColorMatrix in="SourceAlpha" type="matrix" values="0 0 0 0 0 0 0 0 0 0 0 0 0 0 0 0 0 0 127 0" result="hardAlpha"/>
<feOffset dy="0.342918"/>
<feGaussianBlur stdDeviation="0.342918"/>
<feComposite in2="hardAlpha" operator="out"/>
<feColorMatrix type="matrix" values="0 0 0 0 0 0 0 0 0 0 0 0 0 0 0 0 0 0 0.05 0"/>
<feBlend mode="normal" in2="BackgroundImageFix" result="effect1_dropShadow_236_128"/>
<feBlend mode="normal" in="SourceGraphic" in2="effect1_dropShadow_236_128" result="shape"/>
</filter>
<filter id="filter15_d_236_128" x="10.8455" y="24.5237" width="4.75424" height="4.75424" filterUnits="userSpaceOnUse" color-interpolation-filters="sRGB">
<feFlood flood-opacity="0" result="BackgroundImageFix"/>
<feColorMatrix in="SourceAlpha" type="matrix" values="0 0 0 0 0 0 0 0 0 0 0 0 0 0 0 0 0 0 127 0" result="hardAlpha"/>
<feOffset dy="0.342918"/>
<feGaussianBlur stdDeviation="0.342918"/>
<feComposite in2="hardAlpha" operator="out"/>
<feColorMatrix type="matrix" values="0 0 0 0 0 0 0 0 0 0 0 0 0 0 0 0 0 0 0.05 0"/>
<feBlend mode="normal" in2="BackgroundImageFix" result="effect1_dropShadow_236_128"/>
<feBlend mode="normal" in="SourceGraphic" in2="effect1_dropShadow_236_128" result="shape"/>
</filter>
<filter id="filter16_dd_236_128" x="18.9268" y="17.956" width="21.2814" height="20.5956" filterUnits="userSpaceOnUse" color-interpolation-filters="sRGB">
<feFlood flood-opacity="0" result="BackgroundImageFix"/>
<feColorMatrix in="SourceAlpha" type="matrix" values="0 0 0 0 0 0 0 0 0 0 0 0 0 0 0 0 0 0 127 0" result="hardAlpha"/>
<feOffset dx="-1.71459" dy="-0.685835"/>
<feGaussianBlur stdDeviation="0.857294"/>
<feComposite in2="hardAlpha" operator="out"/>
<feColorMatrix type="matrix" values="0 0 0 0 1 0 0 0 0 1 0 0 0 0 1 0 0 0 0.5 0"/>
<feBlend mode="normal" in2="BackgroundImageFix" result="effect1_dropShadow_236_128"/>
<feColorMatrix in="SourceAlpha" type="matrix" values="0 0 0 0 0 0 0 0 0 0 0 0 0 0 0 0 0 0 127 0" result="hardAlpha"/>
<feOffset dx="0.342918" dy="0.685835"/>
<feGaussianBlur stdDeviation="1.20021"/>
<feComposite in2="hardAlpha" operator="out"/>
<feColorMatrix type="matrix" values="0 0 0 0 0.348958 0 0 0 0 0.462623 0 0 0 0 0.625 0 0 0 0.25 0"/>
<feBlend mode="normal" in2="effect1_dropShadow_236_128" result="effect2_dropShadow_236_128"/>
<feBlend mode="normal" in="SourceGraphic" in2="effect2_dropShadow_236_128" result="shape"/>
</filter>
<filter id="filter17_d_236_128" x="25.8986" y="21.3666" width="7.97181" height="14.6858" filterUnits="userSpaceOnUse" color-interpolation-filters="sRGB">
<feFlood flood-opacity="0" result="BackgroundImageFix"/>
<feColorMatrix in="SourceAlpha" type="matrix" values="0 0 0 0 0 0 0 0 0 0 0 0 0 0 0 0 0 0 127 0" result="hardAlpha"/>
<feOffset dy="0.685835"/>
<feGaussianBlur stdDeviation="0.514376"/>
<feComposite in2="hardAlpha" operator="out"/>
<feColorMatrix type="matrix" values="0 0 0 0 0 0 0 0 0 0 0 0 0 0 0 0 0 0 0.05 0"/>
<feBlend mode="normal" in2="BackgroundImageFix" result="effect1_dropShadow_236_128"/>
<feBlend mode="normal" in="SourceGraphic" in2="effect1_dropShadow_236_128" result="shape"/>
</filter>
<linearGradient id="paint0_linear_236_128" x1="60.6717" y1="63.6082" x2="66.1358" y2="80.6128" gradientUnits="userSpaceOnUse">
<stop stop-color="#925FE2"/>
<stop offset="1" stop-color="#E2D4F7"/>
</linearGradient>
<linearGradient id="paint1_linear_236_128" x1="60.6717" y1="63.6082" x2="60.6717" y2="70.5039" gradientUnits="userSpaceOnUse">
<stop stop-color="#925FE2"/>
<stop offset="1" stop-color="#DFE7F5"/>
</linearGradient>
<linearGradient id="paint2_linear_236_128" x1="60.6716" y1="61.1157" x2="63.384" y2="73.404" gradientUnits="userSpaceOnUse">
<stop stop-color="#925FE2"/>
<stop offset="1" stop-color="#E2D4F7"/>
</linearGradient>
<linearGradient id="paint3_linear_236_128" x1="31.337" y1="63.6082" x2="35.6307" y2="78.1343" gradientUnits="userSpaceOnUse">
<stop stop-color="#925FE2"/>
<stop offset="1" stop-color="#E2D4F7"/>
</linearGradient>
<linearGradient id="paint4_linear_236_128" x1="31.337" y1="63.6082" x2="31.337" y2="70.5039" gradientUnits="userSpaceOnUse">
<stop stop-color="#925FE2"/>
<stop offset="1" stop-color="#DFE7F5"/>
</linearGradient>
<linearGradient id="paint5_linear_236_128" x1="31.3371" y1="61.1157" x2="33.4529" y2="71.5363" gradientUnits="userSpaceOnUse">
<stop stop-color="#925FE2"/>
<stop offset="1" stop-color="#E2D4F7"/>
</linearGradient>
<linearGradient id="paint6_linear_236_128" x1="60.6717" y1="56.1082" x2="70.1289" y2="67.3847" gradientUnits="userSpaceOnUse">
<stop stop-color="#925FE2"/>
<stop offset="1" stop-color="#E2D4F7"/>
</linearGradient>
<linearGradient id="paint7_linear_236_128" x1="60.6717" y1="56.1082" x2="60.6717" y2="63.0039" gradientUnits="userSpaceOnUse">
<stop stop-color="#925FE2"/>
<stop offset="1" stop-color="#DFE7F5"/>
</linearGradient>
<linearGradient id="paint8_linear_236_128" x1="60.6716" y1="53.6157" x2="66.3787" y2="63.5223" gradientUnits="userSpaceOnUse">
<stop stop-color="#925FE2"/>
<stop offset="1" stop-color="#E2D4F7"/>
</linearGradient>
<linearGradient id="paint9_linear_236_128" x1="31.337" y1="56.1082" x2="31.337" y2="63.0039" gradientUnits="userSpaceOnUse">
<stop stop-color="#925FE2"/>
<stop offset="1" stop-color="#925FE2"/>
</linearGradient>
<linearGradient id="paint10_linear_236_128" x1="31.337" y1="56.1082" x2="31.337" y2="63.0039" gradientUnits="userSpaceOnUse">
<stop stop-color="#925FE2"/>
<stop offset="1" stop-color="#DFE7F5"/>
</linearGradient>
<linearGradient id="paint11_linear_236_128" x1="31.3371" y1="53.6157" x2="31.3371" y2="58.3526" gradientUnits="userSpaceOnUse">
<stop stop-color="#925FE2"/>
<stop offset="1" stop-color="#925FE2"/>
</linearGradient>
<linearGradient id="paint12_linear_236_128" x1="60.6605" y1="48.6309" x2="73.1119" y2="62.9607" gradientUnits="userSpaceOnUse">
<stop stop-color="#925FE2"/>
<stop offset="1" stop-color="#E2D4F7"/>
</linearGradient>
<linearGradient id="paint13_linear_236_128" x1="60.6605" y1="48.6309" x2="60.6605" y2="55.5266" gradientUnits="userSpaceOnUse">
<stop stop-color="#925FE2"/>
<stop offset="1" stop-color="#DFE7F5"/>
</linearGradient>
<linearGradient id="paint14_linear_236_128" x1="60.6605" y1="46.1383" x2="68.2633" y2="58.8758" gradientUnits="userSpaceOnUse">
<stop stop-color="#925FE2"/>
<stop offset="1" stop-color="#E2D4F7"/>
</linearGradient>
<linearGradient id="paint15_linear_236_128" x1="60.6605" y1="41.1759" x2="71.2267" y2="56.1364" gradientUnits="userSpaceOnUse">
<stop stop-color="#925FE2"/>
<stop offset="1" stop-color="#E2D4F7"/>
</linearGradient>
<linearGradient id="paint16_linear_236_128" x1="60.6605" y1="41.1759" x2="60.6605" y2="48.0717" gradientUnits="userSpaceOnUse">
<stop stop-color="#925FE2"/>
<stop offset="1" stop-color="#DFE7F5"/>
</linearGradient>
<linearGradient id="paint17_linear_236_128" x1="60.6605" y1="38.6835" x2="66.7095" y2="51.1517" gradientUnits="userSpaceOnUse">
<stop stop-color="#925FE2"/>
<stop offset="1" stop-color="#E2D4F7"/>
</linearGradient>
<linearGradient id="paint18_linear_236_128" x1="8.48718" y1="21.5031" x2="72.9813" y2="48.3575" gradientUnits="userSpaceOnUse">
<stop stop-color="#925FE2"/>
<stop offset="1" stop-color="#E2D4F7"/>
</linearGradient>
<linearGradient id="paint19_linear_236_128" x1="9.1637" y1="22.2924" x2="51.5587" y2="34.8079" gradientUnits="userSpaceOnUse">
<stop stop-color="#925FE2"/>
<stop offset="1" stop-color="#E8EFFD"/>
</linearGradient>
<linearGradient id="paint20_linear_236_128" x1="46.5978" y1="27.5726" x2="46.5978" y2="30.9552" gradientUnits="userSpaceOnUse">
<stop offset="0.15625" stop-color="#925FE2"/>
<stop offset="1" stop-color="#F1F1F1"/>
</linearGradient>
<linearGradient id="paint21_linear_236_128" x1="13.2227" y1="24.8666" x2="13.2227" y2="28.2492" gradientUnits="userSpaceOnUse">
<stop offset="0.182292" stop-color="#925FE2"/>
<stop offset="1" stop-color="#F1F1F1"/>
</linearGradient>
<linearGradient id="paint22_linear_236_128" x1="29.9104" y1="20.3564" x2="29.9104" y2="35.4653" gradientUnits="userSpaceOnUse">
<stop stop-color="#E4EBF7" stop-opacity="0.5"/>
<stop offset="1" stop-color="#D9E4F4"/>
</linearGradient>
<linearGradient id="paint23_linear_236_128" x1="29.8825" y1="22.837" x2="29.8825" y2="33.2103" gradientUnits="userSpaceOnUse">
<stop stop-color="#925FE2"/>
<stop offset="1" stop-color="#925FE2"/>
</linearGradient>
<linearGradient id="paint24_linear_236_128" x1="31.6015" y1="21.7095" x2="31.6015" y2="25.7686" gradientUnits="userSpaceOnUse">
<stop stop-color="#925FE2"/>
<stop offset="1" stop-color="#925FE2"/>
</linearGradient>
<linearGradient id="paint25_linear_236_128" x1="28.2189" y1="30.2787" x2="28.2189" y2="34.3378" gradientUnits="userSpaceOnUse">
<stop stop-color="#925FE2"/>
<stop offset="1" stop-color="#925FE2"/>
</linearGradient>
</defs>
</svg>
