<svg width="51" height="69" viewBox="0 0 51 69" fill="none" xmlns="http://www.w3.org/2000/svg">
<g filter="url(#filter0_d_236_170)">
<path d="M40.0294 2.5895C40.0294 2.07873 40.4435 1.66467 40.9542 1.66467H45.8909C46.4017 1.66467 46.8158 2.07873 46.8158 2.5895V64.0109C46.8158 64.1131 46.7329 64.1959 46.6308 64.1959H40.2144C40.1122 64.1959 40.0294 64.1131 40.0294 64.011V2.5895Z" fill="url(#paint0_linear_236_170)"/>
</g>
<g filter="url(#filter1_d_236_170)">
<path d="M30.577 30.7043C30.577 30.1935 30.9911 29.7794 31.5019 29.7794H36.4385C36.9493 29.7794 37.3634 30.1935 37.3634 30.7042V64.0109C37.3634 64.113 37.2806 64.1958 37.1784 64.1958H30.762C30.6598 64.1958 30.577 64.113 30.577 64.0109V30.7043Z" fill="url(#paint1_linear_236_170)"/>
</g>
<g filter="url(#filter2_d_236_170)">
<path d="M21.1245 47.9125C21.1245 47.4017 21.5386 46.9877 22.0493 46.9877H26.986C27.4968 46.9877 27.9108 47.4017 27.9108 47.9125V64.0109C27.9108 64.1131 27.828 64.1959 27.7259 64.1959H21.3095C21.2073 64.1959 21.1245 64.1131 21.1245 64.0109V47.9125Z" fill="url(#paint2_linear_236_170)"/>
</g>
<g filter="url(#filter3_d_236_170)">
<path d="M11.6721 38.7025C11.6721 38.1918 12.0862 37.7777 12.5969 37.7777H17.5336C18.0444 37.7777 18.4585 38.1918 18.4585 38.7025V64.011C18.4585 64.1131 18.3756 64.196 18.2735 64.196H11.8571C11.7549 64.196 11.6721 64.1131 11.6721 64.011V38.7025Z" fill="url(#paint3_linear_236_170)"/>
</g>
<g filter="url(#filter4_d_236_170)">
<path d="M2.2196 54.9412C2.2196 54.4304 2.63366 54.0164 3.14443 54.0164H8.08111C8.59188 54.0164 9.00594 54.4304 9.00594 54.9412V64.0109C9.00594 64.1131 8.92313 64.1959 8.82097 64.1959H2.40457C2.30242 64.1959 2.2196 64.1131 2.2196 64.0109V54.9412Z" fill="url(#paint4_linear_236_170)"/>
</g>
<defs>
<filter id="filter0_d_236_170" x="37.8098" y="-2.08616e-05" width="12.3354" height="68.0802" filterUnits="userSpaceOnUse" color-interpolation-filters="sRGB">
<feFlood flood-opacity="0" result="BackgroundImageFix"/>
<feColorMatrix in="SourceAlpha" type="matrix" values="0 0 0 0 0 0 0 0 0 0 0 0 0 0 0 0 0 0 127 0" result="hardAlpha"/>
<feOffset dx="0.554898" dy="1.1098"/>
<feGaussianBlur stdDeviation="1.38724"/>
<feComposite in2="hardAlpha" operator="out"/>
<feColorMatrix type="matrix" values="0 0 0 0 0.462745 0 0 0 0 0.556863 0 0 0 0 0.690196 0 0 0 0.25 0"/>
<feBlend mode="normal" in2="BackgroundImageFix" result="effect1_dropShadow_236_170"/>
<feBlend mode="normal" in="SourceGraphic" in2="effect1_dropShadow_236_170" result="shape"/>
</filter>
<filter id="filter1_d_236_170" x="28.3574" y="28.1147" width="12.3354" height="39.9654" filterUnits="userSpaceOnUse" color-interpolation-filters="sRGB">
<feFlood flood-opacity="0" result="BackgroundImageFix"/>
<feColorMatrix in="SourceAlpha" type="matrix" values="0 0 0 0 0 0 0 0 0 0 0 0 0 0 0 0 0 0 127 0" result="hardAlpha"/>
<feOffset dx="0.554898" dy="1.1098"/>
<feGaussianBlur stdDeviation="1.38724"/>
<feComposite in2="hardAlpha" operator="out"/>
<feColorMatrix type="matrix" values="0 0 0 0 0.462745 0 0 0 0 0.556863 0 0 0 0 0.690196 0 0 0 0.25 0"/>
<feBlend mode="normal" in2="BackgroundImageFix" result="effect1_dropShadow_236_170"/>
<feBlend mode="normal" in="SourceGraphic" in2="effect1_dropShadow_236_170" result="shape"/>
</filter>
<filter id="filter2_d_236_170" x="18.9049" y="45.323" width="12.3354" height="22.7572" filterUnits="userSpaceOnUse" color-interpolation-filters="sRGB">
<feFlood flood-opacity="0" result="BackgroundImageFix"/>
<feColorMatrix in="SourceAlpha" type="matrix" values="0 0 0 0 0 0 0 0 0 0 0 0 0 0 0 0 0 0 127 0" result="hardAlpha"/>
<feOffset dx="0.554898" dy="1.1098"/>
<feGaussianBlur stdDeviation="1.38724"/>
<feComposite in2="hardAlpha" operator="out"/>
<feColorMatrix type="matrix" values="0 0 0 0 0.462745 0 0 0 0 0.556863 0 0 0 0 0.690196 0 0 0 0.25 0"/>
<feBlend mode="normal" in2="BackgroundImageFix" result="effect1_dropShadow_236_170"/>
<feBlend mode="normal" in="SourceGraphic" in2="effect1_dropShadow_236_170" result="shape"/>
</filter>
<filter id="filter3_d_236_170" x="9.45253" y="36.113" width="12.3354" height="31.9672" filterUnits="userSpaceOnUse" color-interpolation-filters="sRGB">
<feFlood flood-opacity="0" result="BackgroundImageFix"/>
<feColorMatrix in="SourceAlpha" type="matrix" values="0 0 0 0 0 0 0 0 0 0 0 0 0 0 0 0 0 0 127 0" result="hardAlpha"/>
<feOffset dx="0.554898" dy="1.1098"/>
<feGaussianBlur stdDeviation="1.38724"/>
<feComposite in2="hardAlpha" operator="out"/>
<feColorMatrix type="matrix" values="0 0 0 0 0.462745 0 0 0 0 0.556863 0 0 0 0 0.690196 0 0 0 0.25 0"/>
<feBlend mode="normal" in2="BackgroundImageFix" result="effect1_dropShadow_236_170"/>
<feBlend mode="normal" in="SourceGraphic" in2="effect1_dropShadow_236_170" result="shape"/>
</filter>
<filter id="filter4_d_236_170" x="1.29342e-05" y="52.3517" width="12.3354" height="15.7285" filterUnits="userSpaceOnUse" color-interpolation-filters="sRGB">
<feFlood flood-opacity="0" result="BackgroundImageFix"/>
<feColorMatrix in="SourceAlpha" type="matrix" values="0 0 0 0 0 0 0 0 0 0 0 0 0 0 0 0 0 0 127 0" result="hardAlpha"/>
<feOffset dx="0.554898" dy="1.1098"/>
<feGaussianBlur stdDeviation="1.38724"/>
<feComposite in2="hardAlpha" operator="out"/>
<feColorMatrix type="matrix" values="0 0 0 0 0.462745 0 0 0 0 0.556863 0 0 0 0 0.690196 0 0 0 0.25 0"/>
<feBlend mode="normal" in2="BackgroundImageFix" result="effect1_dropShadow_236_170"/>
<feBlend mode="normal" in="SourceGraphic" in2="effect1_dropShadow_236_170" result="shape"/>
</filter>
<linearGradient id="paint0_linear_236_170" x1="43.4226" y1="1.66467" x2="43.4226" y2="64.1959" gradientUnits="userSpaceOnUse">
<stop stop-color="#9C6FE4"/>
<stop offset="1" stop-color="#E2D4F7"/>
</linearGradient>
<linearGradient id="paint1_linear_236_170" x1="33.9702" y1="29.7794" x2="33.9702" y2="64.1958" gradientUnits="userSpaceOnUse">
<stop stop-color="#9C6FE4"/>
<stop offset="1" stop-color="#E2D4F7"/>
</linearGradient>
<linearGradient id="paint2_linear_236_170" x1="24.5177" y1="46.9877" x2="24.5177" y2="64.1959" gradientUnits="userSpaceOnUse">
<stop stop-color="#9C6FE4"/>
<stop offset="1" stop-color="#E2D4F7"/>
</linearGradient>
<linearGradient id="paint3_linear_236_170" x1="15.0653" y1="37.7777" x2="15.0653" y2="64.196" gradientUnits="userSpaceOnUse">
<stop stop-color="#9C6FE4"/>
<stop offset="1" stop-color="#E2D4F7"/>
</linearGradient>
<linearGradient id="paint4_linear_236_170" x1="5.61277" y1="54.0164" x2="5.61277" y2="64.1959" gradientUnits="userSpaceOnUse">
<stop stop-color="#9C6FE4"/>
<stop offset="1" stop-color="#E2D4F7"/>
</linearGradient>
</defs>
</svg>
