<svg width="50" height="38" viewBox="0 0 50 38" fill="none" xmlns="http://www.w3.org/2000/svg">
<path d="M0.380898 30.8982L0.349522 27.519L0.347443 27.2952L0.335964 26.0603L0.328091 25.2132L0.000293732 25.1216V24.4053L7.04401 22.5615C5.91252 22.1581 5.10981 21.8721 4.86912 21.7863C2.50424 20.6766 2.26251 14.6236 4.86912 13.8843L7.29719 13.3947L9.63616 12.923L9.3355 12.8619L8.88932 12.7713L7.13618 12.415C7.11333 12.4102 7.0899 12.4049 7.06607 12.3991C7.05751 12.397 7.04858 12.3944 7.03991 12.3921C7.02441 12.3882 7.009 12.3842 6.99312 12.3798C6.98259 12.3768 6.97177 12.3733 6.96111 12.3701C6.9467 12.3658 6.93238 12.3617 6.91771 12.3569C6.90595 12.3531 6.89393 12.3488 6.88204 12.3448C6.86815 12.3401 6.85438 12.3355 6.84033 12.3305C6.8277 12.3259 6.81485 12.3207 6.80209 12.3158C6.78842 12.3106 6.77484 12.3055 6.76104 12.2999C6.74773 12.2945 6.73422 12.2885 6.72078 12.2827C6.70741 12.277 6.69407 12.2714 6.6806 12.2653C6.66649 12.2589 6.65231 12.2519 6.63812 12.2451C6.62505 12.2389 6.61207 12.2327 6.59895 12.2261C6.58449 12.2189 6.57001 12.211 6.55552 12.2033C6.54254 12.1964 6.52958 12.1897 6.51657 12.1824C6.50171 12.1741 6.4868 12.1653 6.47191 12.1565C6.45926 12.149 6.4466 12.1417 6.43389 12.1338C6.41869 12.1244 6.4035 12.1145 6.3883 12.1046C6.37589 12.0965 6.36348 12.0885 6.3511 12.0801C6.33582 12.0698 6.32062 12.0588 6.3054 12.0479C6.29305 12.039 6.28072 12.0302 6.26842 12.021C6.25308 12.0095 6.23783 11.9975 6.22261 11.9854C6.21058 11.9759 6.19858 11.9664 6.18661 11.9565C6.17122 11.9438 6.15594 11.9305 6.14066 11.9172C6.12899 11.907 6.11732 11.8968 6.10574 11.8862C6.09037 11.8722 6.07515 11.8577 6.05998 11.8431C6.04866 11.8322 6.0374 11.8212 6.0262 11.8099C6.01094 11.7946 5.99586 11.7788 5.9808 11.7628C5.96989 11.7512 5.95907 11.7394 5.94827 11.7275C5.93324 11.7107 5.91837 11.6936 5.90358 11.6762C5.89306 11.6638 5.88264 11.6513 5.87226 11.6385C5.85756 11.6204 5.84299 11.6019 5.82855 11.583C5.8185 11.5699 5.80854 11.5565 5.79862 11.543C5.78424 11.5233 5.77003 11.5033 5.75599 11.4828C5.7465 11.469 5.73713 11.455 5.72781 11.4407C5.71384 11.4195 5.70004 11.3978 5.68642 11.3757C5.6774 11.361 5.66852 11.346 5.65969 11.331C5.64635 11.3083 5.63318 11.2852 5.62025 11.2616C5.61172 11.246 5.60336 11.2301 5.59502 11.214C5.58228 11.1896 5.56968 11.1649 5.55741 11.1396C5.54951 11.1233 5.54183 11.1065 5.5341 11.0897C5.52201 11.0636 5.5101 11.0372 5.49857 11.01C5.49129 10.9929 5.48433 10.9754 5.47727 10.9579C5.4659 10.9298 5.45467 10.9014 5.44387 10.8723C5.43731 10.8545 5.43105 10.8362 5.42471 10.8181C5.41419 10.788 5.40375 10.7577 5.39383 10.7265C5.38795 10.708 5.38245 10.6889 5.37682 10.6701C5.3672 10.6379 5.35764 10.6056 5.34873 10.5723C5.34359 10.5532 5.33889 10.5334 5.334 10.5139C5.32536 10.4795 5.31675 10.445 5.30885 10.4093C5.30453 10.3898 5.30068 10.3695 5.29658 10.3497C5.28898 10.3128 5.28141 10.2758 5.27463 10.2377C5.2711 10.2178 5.26807 10.1971 5.26479 10.1769C5.25834 10.1373 5.25186 10.0977 5.24631 10.0568C5.24361 10.037 5.2415 10.0164 5.23904 9.99624C5.2338 9.95349 5.22855 9.91074 5.22431 9.86655C5.22248 9.84744 5.22122 9.82749 5.21958 9.80811C5.21564 9.76159 5.21171 9.71501 5.20889 9.66688C5.20788 9.64947 5.20747 9.63121 5.2066 9.61358C5.20408 9.56214 5.20165 9.51056 5.20047 9.45726C5.20018 9.44453 5.20042 9.43114 5.2002 9.41826C5.19812 9.28963 5.19925 9.1566 5.20534 9.01704C5.22442 8.57849 5.27851 8.18433 5.35739 7.83236C5.35739 7.83231 5.35744 7.83225 5.35744 7.83223C5.38284 7.71902 5.41088 7.61045 5.44117 7.50606C5.44188 7.50358 5.44259 7.50106 5.44333 7.49858C5.47328 7.39597 5.50543 7.29774 5.53957 7.20368C5.54085 7.20018 5.5421 7.19669 5.54339 7.19322C5.57753 7.09985 5.61345 7.01063 5.65111 6.92566C5.65234 6.92289 5.65359 6.92019 5.65482 6.91743C5.69309 6.83163 5.73289 6.74993 5.77416 6.67272C5.77419 6.67266 5.77422 6.67261 5.77424 6.67255C6.19514 5.88529 6.75617 5.54292 7.13626 5.62016L10.8267 4.13665C10.8267 4.13665 10.8267 4.13665 10.8267 4.13665L21.1168 0.00012207L38.0387 3.43852C38.0387 3.43852 38.0387 3.43852 38.0387 3.43849L42.9923 4.44505V5.03254V10.5335V11.24L41.9982 11.6395L45.2752 12.1034L49.6093 12.7169H49.6093V13.7151L49.036 13.8842V18.9731L49.6093 18.9069V19.9007L47.6899 20.4451L48.2457 20.5215C48.2827 20.5277 48.3188 20.5361 48.3543 20.5458C48.365 20.5488 48.3754 20.5524 48.386 20.5557C48.4109 20.5634 48.4356 20.5717 48.4598 20.5812C48.4709 20.5855 48.4819 20.5901 48.4928 20.5948C48.5171 20.6052 48.5409 20.6165 48.5643 20.6286C48.5733 20.6333 48.5824 20.6377 48.5913 20.6426C48.6213 20.6592 48.6507 20.677 48.6793 20.6963C48.6809 20.6974 48.6825 20.6983 48.6841 20.6994C48.7167 20.7216 48.7483 20.7456 48.7791 20.7713C48.7794 20.7715 48.7797 20.7718 48.78 20.7721C48.8092 20.7965 48.8376 20.8228 48.8653 20.8502C48.8694 20.8542 48.8733 20.8584 48.8774 20.8625C48.902 20.8874 48.9261 20.9136 48.9495 20.9409C48.953 20.9449 48.9565 20.949 48.96 20.9531C49.7425 21.8827 49.8325 24.0782 49.4316 25.7593C49.4307 25.7626 49.43 25.766 49.4292 25.7693C49.371 26.0116 49.3027 26.243 49.2247 26.4583C49.2223 26.4648 49.22 26.4713 49.2177 26.4777C49.1928 26.5455 49.167 26.6118 49.1403 26.6762C49.1378 26.6822 49.1352 26.688 49.1327 26.694C49.0782 26.8236 49.0199 26.9457 48.9578 27.059C48.9542 27.0657 48.9506 27.0726 48.9469 27.0792C48.9172 27.1325 48.8867 27.1835 48.8554 27.2326C48.8503 27.2407 48.845 27.2487 48.8398 27.2567C48.8081 27.3053 48.7758 27.3521 48.7425 27.3961C48.7391 27.4005 48.7357 27.4046 48.7323 27.4091C48.6996 27.4515 48.6663 27.4917 48.6321 27.5295C48.6286 27.5334 48.6252 27.5376 48.6216 27.5415C48.5869 27.5792 48.5512 27.6139 48.515 27.6466C48.5082 27.6528 48.5015 27.6589 48.4946 27.6648C48.4587 27.696 48.4221 27.7247 48.3848 27.7506C48.3784 27.755 48.372 27.759 48.3656 27.7632C48.3263 27.7893 48.2865 27.8133 48.2457 27.8333C48.217 27.8438 48.1163 27.8818 47.9513 27.9441C47.9041 27.9619 47.8517 27.9817 47.7943 28.0034C47.7368 28.0252 47.6743 28.0488 47.6069 28.0743C47.4722 28.1253 47.3179 28.1838 47.1456 28.249C47.1025 28.2654 47.0584 28.2821 47.0131 28.2993C46.7412 28.4023 46.4297 28.5204 46.0833 28.6517C46.0256 28.6736 45.9669 28.6959 45.9073 28.7185C45.7881 28.7637 45.665 28.8104 45.5384 28.8584C45.4751 28.8825 45.4109 28.9068 45.3458 28.9315C45.2156 28.9809 45.082 29.0316 44.945 29.0835C44.8765 29.1095 44.8072 29.1358 44.7371 29.1624C42.7739 29.9073 40.1797 30.892 37.4593 31.9249C37.3621 31.9618 37.2648 31.9988 37.1674 32.0358C30.4495 34.5865 23.0766 37.3872 22.5808 37.5755C22.5694 37.5801 22.5627 37.5823 22.5626 37.5824C22.5626 37.5824 22.5625 37.5824 22.5625 37.5824L0.000263214 32.1968V31.4812L0.387104 31.5711L0.38213 31.037L0.380898 30.8982Z" fill="#9C6FE4"/>
<path d="M0.381893 31.0249L0.372627 30.0287L0.371181 29.8722L0.370117 29.756L0.360794 28.7534L0.358307 28.4855L0.335785 26.0602L0.327911 25.2131L0.000114441 25.1215V24.4052L7.04383 22.5614C7.14614 22.5978 7.25074 22.6351 7.35829 22.6735C10.9967 23.9703 17.5284 26.2984 20.3675 27.3104C21.2263 27.6165 21.7487 27.8027 21.7487 27.8027L47.6897 20.4451L47.7423 20.4523L48.2455 20.5214L48.2455 20.5214C48.2826 20.5276 48.3186 20.536 48.3541 20.5458C48.3648 20.5487 48.3752 20.5524 48.3858 20.5556C48.4108 20.5633 48.4354 20.5717 48.4597 20.5811C48.4708 20.5855 48.4817 20.59 48.4926 20.5947C48.5169 20.6051 48.5407 20.6164 48.5641 20.6286C48.5732 20.6332 48.5822 20.6377 48.5911 20.6426C48.6211 20.6592 48.6505 20.6769 48.6792 20.6963C48.6807 20.6974 48.6824 20.6983 48.6839 20.6993C48.7164 20.7216 48.7481 20.7455 48.779 20.7713C48.7792 20.7715 48.7795 20.7717 48.7798 20.772C48.809 20.7965 48.8374 20.8227 48.8651 20.8501C48.8692 20.8541 48.8731 20.8583 48.8772 20.8624C48.9018 20.8874 48.9259 20.9135 48.9493 20.9408C48.9528 20.9449 48.9563 20.9489 48.9598 20.953C48.9858 20.984 49.0112 21.0161 49.0357 21.0497C49.0345 21.0502 49.0332 21.0507 49.0319 21.0512C49.6011 21.8305 49.7632 23.3253 49.6083 24.7252C49.6085 24.7249 49.6089 24.7246 49.6091 24.7244C49.6084 24.7302 49.6073 24.7359 49.6066 24.7418C49.5891 24.8975 49.5669 25.0515 49.5417 25.2036C49.536 25.238 49.5299 25.272 49.5238 25.3062C49.4964 25.46 49.4665 25.6121 49.4314 25.7592C49.4306 25.7626 49.4297 25.7659 49.429 25.7693C49.3708 26.0116 49.3025 26.2429 49.2245 26.4583C49.2221 26.4648 49.2198 26.4712 49.2175 26.4777C49.1926 26.5455 49.1668 26.6117 49.1401 26.6761C49.1376 26.6822 49.135 26.688 49.1325 26.694C49.078 26.8236 49.0196 26.9457 48.9576 27.059C48.954 27.0657 48.9504 27.0725 48.9467 27.0792C48.917 27.1325 48.8865 27.1835 48.8552 27.2326C48.85 27.2407 48.8448 27.2487 48.8396 27.2567C48.8079 27.3053 48.7755 27.352 48.7422 27.3961C48.7389 27.4005 48.7354 27.4046 48.732 27.409C48.6994 27.4515 48.666 27.4916 48.6319 27.5294C48.6283 27.5334 48.6249 27.5376 48.6213 27.5414C48.5866 27.5792 48.5509 27.6139 48.5147 27.6466C48.508 27.6527 48.5012 27.6589 48.4944 27.6648C48.4585 27.6959 48.4219 27.7247 48.3845 27.7506C48.3782 27.755 48.3718 27.759 48.3654 27.7632C48.3261 27.7893 48.2863 27.8133 48.2455 27.8333C48.2168 27.8438 48.116 27.8818 47.951 27.9441C47.9039 27.9619 47.8515 27.9817 47.794 28.0034C47.7366 28.0252 47.6741 28.0488 47.6067 28.0743C47.5393 28.0998 47.4671 28.1272 47.3901 28.1563C47.3132 28.1855 47.2315 28.2164 47.1454 28.249C47.1023 28.2654 47.0581 28.2821 47.0128 28.2993C46.8316 28.3679 46.6327 28.4433 46.4177 28.5249C46.3102 28.5656 46.1986 28.608 46.0831 28.6517C46.0254 28.6736 45.9667 28.6959 45.9071 28.7185C45.7879 28.7638 45.6648 28.8104 45.5382 28.8584C45.4749 28.8825 45.4107 28.9068 45.3456 28.9315C45.2155 28.9809 45.0818 29.0316 44.9448 29.0835C44.8764 29.1095 44.807 29.1358 44.7369 29.1624C44.3863 29.2954 44.0156 29.4361 43.6277 29.5833C43.3561 29.6864 43.0761 29.7926 42.7886 29.9017C42.5012 30.0108 42.2062 30.1228 41.9048 30.2372C41.0436 30.5641 40.1295 30.9111 39.1856 31.2695C38.6192 31.4845 38.042 31.7036 37.4591 31.925C37.3619 31.9618 37.2646 31.9988 37.1671 32.0358C36.7773 32.1838 36.3853 32.3327 35.9925 32.4818C35.7961 32.5564 35.5996 32.631 35.403 32.7056C32.946 33.6386 30.489 34.5718 28.3913 35.3684C28.1723 35.4516 27.9574 35.5332 27.7466 35.6133C27.5305 35.6954 27.3194 35.7755 27.1128 35.854C27.0115 35.8925 26.9115 35.9305 26.8126 35.968C26.7006 36.0106 26.5901 36.0525 26.4813 36.0938C26.4424 36.1087 26.403 36.1236 26.3645 36.1382C26.219 36.1935 26.0772 36.2473 25.9382 36.3001C25.8744 36.3244 25.8115 36.3482 25.7492 36.3719C25.653 36.4085 25.5585 36.4444 25.4658 36.4795C25.4126 36.4997 25.36 36.5197 25.308 36.5395C25.2399 36.5653 25.1727 36.5909 25.1066 36.616C24.9165 36.6882 24.7353 36.757 24.5633 36.8223C24.5308 36.8347 24.4985 36.847 24.4667 36.859C24.3853 36.8899 24.3066 36.9199 24.2298 36.949C24.2032 36.9591 24.1765 36.9692 24.1505 36.9791C24.0694 37.0099 23.9919 37.0394 23.9162 37.0681C23.8691 37.086 23.823 37.1035 23.7781 37.1206C23.112 37.3736 22.687 37.535 22.5806 37.5754C22.5692 37.5801 22.5625 37.5823 22.5624 37.5823C22.5624 37.5823 22.5623 37.5823 22.5623 37.5824L3.8147e-06 32.1968V31.4812L0.386841 31.5711L0.381924 31.0412L0.381893 31.0249Z" fill="#925FE2"/>
<path d="M22.5625 37.5823C22.5626 37.5822 22.5626 37.5822 22.5627 37.5822C22.6094 37.5524 22.6545 37.5181 22.6989 37.4817C22.7118 37.4711 22.7245 37.4599 22.7372 37.4487C22.7707 37.4193 22.8035 37.388 22.8356 37.3549C22.8466 37.3435 22.8579 37.3329 22.8687 37.3211C22.9085 37.278 22.9472 37.2322 22.9847 37.1837C22.9962 37.1687 23.0073 37.1525 23.0187 37.137C23.045 37.1011 23.0708 37.0641 23.096 37.0257C23.1102 37.0039 23.1244 36.9821 23.1383 36.9595C23.1615 36.9217 23.1841 36.8824 23.2063 36.8425C23.2262 36.8067 23.2457 36.7703 23.2647 36.7329C23.2847 36.6937 23.3045 36.6541 23.3236 36.6132C23.34 36.5779 23.3558 36.5417 23.3715 36.5052C23.3834 36.4777 23.395 36.4497 23.4065 36.4215C23.4233 36.3801 23.4401 36.3388 23.456 36.2961C23.4572 36.2929 23.4583 36.2896 23.4595 36.2864C23.499 36.1799 23.5356 36.0692 23.5696 35.9555C23.5731 35.9438 23.5767 35.9322 23.5802 35.9205C23.5972 35.8621 23.6137 35.803 23.6293 35.743C23.6301 35.7402 23.6307 35.7374 23.6315 35.7346C23.6812 35.5426 23.7237 35.3429 23.7587 35.1382C24.0178 33.6199 23.8637 31.8278 23.2393 30.8717C31.8073 27.3583 40.478 24.3774 49.0321 21.0511C49.6013 21.8304 49.7634 23.3252 49.6084 24.7251C49.6086 24.7248 49.609 24.7246 49.6092 24.7243C49.6086 24.7302 49.6074 24.7358 49.6068 24.7417C49.5892 24.8974 49.567 25.0514 49.5418 25.2035C49.5361 25.238 49.53 25.2719 49.5239 25.3062C49.4965 25.46 49.4666 25.612 49.4315 25.7592C49.4307 25.7625 49.4299 25.7659 49.4291 25.7692C49.3709 26.0116 49.3026 26.2429 49.2246 26.4582C49.2222 26.4647 49.2199 26.4712 49.2176 26.4776C49.1927 26.5455 49.167 26.6117 49.1402 26.6761C49.1377 26.6821 49.1351 26.688 49.1326 26.694C49.0782 26.8236 49.0198 26.9456 48.9577 27.0589C48.9541 27.0656 48.9505 27.0725 48.9468 27.0791C48.9171 27.1324 48.8866 27.1835 48.8553 27.2325C48.8502 27.2407 48.8449 27.2486 48.8397 27.2566C48.808 27.3052 48.7757 27.352 48.7423 27.396C48.739 27.4005 48.7355 27.4046 48.7321 27.409C48.6995 27.4514 48.6661 27.4916 48.632 27.5294C48.6284 27.5333 48.625 27.5375 48.6214 27.5414C48.5867 27.5792 48.5511 27.6139 48.5149 27.6466C48.5081 27.6527 48.5013 27.6588 48.4945 27.6647C48.4586 27.6959 48.422 27.7247 48.3846 27.7506C48.3783 27.755 48.3719 27.7589 48.3655 27.7631C48.3262 27.7892 48.2864 27.8133 48.2456 27.8333C48.2169 27.8438 48.1161 27.8817 47.9511 27.944C47.904 27.9618 47.8516 27.9817 47.7942 28.0034C47.7367 28.0251 47.6742 28.0488 47.6069 28.0743C47.5395 28.0998 47.4672 28.1272 47.3902 28.1563C47.3133 28.1854 47.2317 28.2163 47.1455 28.249C47.1025 28.2653 47.0583 28.2821 47.0129 28.2992C46.8318 28.3679 46.6329 28.4433 46.4178 28.5248C46.3103 28.5656 46.1987 28.6079 46.0833 28.6517C46.0255 28.6736 45.9668 28.6958 45.9072 28.7185C45.788 28.7637 45.6649 28.8104 45.5383 28.8584C45.475 28.8824 45.4108 28.9068 45.3457 28.9315C45.2156 28.9808 45.0819 29.0315 44.945 29.0835C44.8765 29.1095 44.8072 29.1358 44.737 29.1624C44.3865 29.2954 44.0158 29.436 43.6278 29.5833C43.3563 29.6863 43.0762 29.7926 42.7888 29.9017C42.5013 30.0108 42.2064 30.1227 41.9049 30.2372C41.0437 30.5641 40.1296 30.911 39.1857 31.2694C38.6193 31.4845 38.0422 31.7036 37.4592 31.9249C37.362 31.9618 37.2647 31.9987 37.1673 32.0358C36.7774 32.1838 36.3854 32.3326 35.9926 32.4817C35.7963 32.5563 35.5997 32.631 35.4031 32.7056C32.9461 33.6386 30.4891 34.5717 28.3914 35.3684C28.1724 35.4516 27.9576 35.5332 27.7467 35.6132C27.5307 35.6953 27.3195 35.7755 27.1129 35.854C27.0116 35.8925 26.9116 35.9304 26.8128 35.968C26.7007 36.0105 26.5902 36.0525 26.4815 36.0938C26.4425 36.1086 26.4032 36.1236 26.3646 36.1382C26.2191 36.1934 26.0773 36.2473 25.9383 36.3001C25.8745 36.3243 25.8116 36.3482 25.7493 36.3719C25.6531 36.4084 25.5586 36.4443 25.4659 36.4795C25.4128 36.4997 25.3602 36.5197 25.3082 36.5394C25.24 36.5653 25.1728 36.5909 25.1067 36.6159C24.9166 36.6881 24.7354 36.757 24.5634 36.8223C24.5309 36.8346 24.4986 36.8469 24.4668 36.859C24.3855 36.8899 24.3067 36.9198 24.2299 36.949C24.2034 36.9591 24.1766 36.9692 24.1506 36.9791C24.0695 37.0099 23.992 37.0393 23.9163 37.0681C23.8692 37.0859 23.8231 37.1035 23.7782 37.1205C23.1122 37.3735 22.6872 37.535 22.5807 37.5754C22.5731 37.5783 22.5668 37.5807 22.5625 37.5823Z" fill="#7042C0"/>
<path d="M21.5928 31.1534C21.5928 31.1534 22.936 31.4892 22.7546 33.9571C22.5813 36.3152 21.7701 36.5395 21.7701 36.5395L20.638 36.2764L0.387032 31.5711L0.382113 31.0413L0.381975 31.0249L0.372707 30.0287L0.37126 29.8723L0.370195 29.756L0.360872 28.7535L0.358387 28.4855L0.335865 26.0602L0.327991 25.2131L21.5928 31.1534Z" fill="url(#paint0_linear_236_69)"/>
<path d="M0.691227 27.3792C4.21687 28.2337 7.72418 29.1971 11.1891 30.2705C7.66621 29.4934 4.16139 28.6112 0.693441 27.6168L0.702217 28.5599C2.74077 28.9995 4.77369 29.5203 6.76814 30.1257C4.73447 29.7792 2.70461 29.351 0.704813 28.8409L0.713858 29.8153C1.89275 30.0234 3.0601 30.3093 4.19979 30.6749C3.02755 30.5612 1.86309 30.3771 0.716595 30.1103L0.724518 30.9635C4.68372 31.7044 8.60782 32.6123 12.4988 33.6549C8.54077 32.9584 4.61831 32.1255 0.726049 31.1282L0.728455 31.3868L20.7739 36.0973C20.9105 35.9026 21.0212 35.6942 21.1067 35.4773C18.7331 35.0713 16.3911 34.4851 14.1061 33.7248C16.4849 34.1136 18.8332 34.6835 21.1257 35.4279C21.2448 35.1099 21.3099 34.775 21.321 34.4391C20.3917 34.3008 19.4866 34.0114 18.6487 33.585C19.5705 33.6754 20.4755 33.9135 21.3221 34.2875C21.3148 33.8124 21.1999 33.3412 20.9778 32.9194C18.4118 32.4082 15.881 31.724 13.4073 30.8717C15.9548 31.3555 18.4691 32.0104 20.9292 32.83C20.6773 32.39 20.3054 32.0095 19.8135 31.7447C16.6546 30.7085 4.4916 27.1447 0.679722 26.1488L0.691227 27.3792Z" fill="white"/>
<path d="M5.96014 15.5727C6.58603 15.7753 21.7487 21.1393 21.7487 21.1393V21.1535L22.5624 20.9367L49.0358 13.8842V18.9731L21.7487 26.7254C21.7487 26.7254 6.91057 21.4351 5.76815 21.0279C5.64922 20.9793 5.53782 20.9155 5.43177 20.8422C4.52845 18.9847 4.62947 16.0587 5.96014 15.5727Z" fill="#F2F2F2"/>
<path d="M5.96014 15.5726C6.58603 15.7752 21.7487 21.1392 21.7487 21.1392V21.1535V26.7253C21.7487 26.7253 6.91055 21.435 5.76813 21.0278C5.6492 20.9793 5.53779 20.9155 5.43174 20.8422C4.52845 18.9847 4.62947 16.0587 5.96014 15.5726Z" fill="url(#paint1_linear_236_69)"/>
<path d="M42.4508 27.5401L29.7767 32.1574V30.1136L42.4508 25.3357V27.5401Z" fill="url(#paint2_linear_236_69)"/>
<path d="M8.79488 30.9938C11.6595 31.5214 14.4872 32.2461 17.2511 33.1658C14.3861 32.6396 11.5591 31.9119 8.79488 30.9938Z" fill="url(#paint3_linear_236_69)"/>
<path d="M31.7692 15.7514L41.9981 11.6395L45.275 12.1034C44.8194 12.3954 44.3252 12.6146 43.8297 12.7562C39.7455 13.8858 35.7745 14.9569 31.7692 15.7514Z" fill="#9C6FE4" fill-opacity="0.3"/>
<path d="M22.1312 15.4618L22.2939 15.4949L24.8799 16.0203L24.9191 16.0283L27.2865 16.5093C26.6305 16.5995 25.9728 16.6824 25.3115 16.7528C19.5411 17.2641 12.2639 16.149 7.29705 13.3945L9.63602 12.9229L21.7735 15.3891L22.1312 15.4618Z" fill="#9C6FE4" fill-opacity="0.3"/>
<path d="M21.7487 21.1535V21.1393C21.7487 21.1393 6.58603 15.7752 5.96017 15.5727C4.6295 16.0587 4.52848 18.9847 5.4318 20.8422C3.61349 19.5852 3.69532 14.9158 5.96017 14.334C6.58606 14.5366 21.7487 19.9007 21.7487 19.9007L27.9256 18.3079L29.3889 17.9306L49.6091 12.7168V13.7151L49.0358 13.8841L22.5624 20.9367L21.7487 21.1535Z" fill="#DFCFF7"/>
<path d="M21.7487 27.8026V26.7254L49.0358 18.9731L49.6091 18.9069V19.9007L47.6897 20.445L21.7487 27.8026Z" fill="#DFCFF7"/>
<path d="M5.19957 9.23837C5.20022 9.1661 5.20184 9.09261 5.20512 9.01684C5.22422 8.57812 5.27837 8.18404 5.35747 7.83221L5.3572 7.83216C5.38259 7.71886 5.41069 7.61016 5.441 7.50575C5.44168 7.50332 5.44239 7.50086 5.44308 7.49843C5.47304 7.39576 5.50526 7.29745 5.5394 7.20334C5.54063 7.19993 5.54189 7.19651 5.54314 7.19309C5.57725 7.0997 5.61325 7.01046 5.65092 6.92545C5.65212 6.92269 5.65338 6.91998 5.65461 6.91722C5.69284 6.83143 5.7327 6.7497 5.77397 6.67249C5.77399 6.67243 5.77399 6.67241 5.77402 6.67235C6.19495 5.88509 6.75595 5.54272 7.13604 5.61996L10.8265 4.13645L21.1166 0L38.0385 3.43843C38.0385 3.43843 38.0385 3.43843 38.0385 3.4384L42.9921 4.44495V5.03247V6.05996V10.5335V11.2399L41.9981 11.6395L31.7692 15.7513L29.0115 16.8599L27.2865 16.5094L24.9191 16.0284L24.8799 16.0204L22.2939 15.4949L22.1313 15.4619L21.7735 15.3892L9.63602 12.9229L9.34318 12.8634L8.88918 12.7712L7.13607 12.415C7.11322 12.4101 7.08985 12.4048 7.06601 12.399C7.05716 12.3968 7.04792 12.3942 7.03893 12.3918C7.02785 12.389 7.0167 12.386 7.00552 12.383C7.00497 12.3828 7.00446 12.3827 7.00391 12.3825C7.00025 12.3816 6.99673 12.3807 6.99303 12.3797C6.98251 12.3767 6.97168 12.3732 6.96103 12.37C6.94662 12.3657 6.9323 12.3616 6.91765 12.3568C6.9059 12.353 6.89387 12.3488 6.88198 12.3447C6.86812 12.34 6.85435 12.3354 6.84027 12.3304C6.82756 12.3257 6.81463 12.3206 6.80179 12.3157C6.78823 12.3104 6.77476 12.3054 6.76104 12.2998C6.74759 12.2943 6.73397 12.2883 6.72042 12.2825C6.70713 12.2768 6.6939 12.2712 6.68051 12.2651C6.66646 12.2588 6.65225 12.2518 6.63809 12.245C6.625 12.2388 6.61196 12.2326 6.59884 12.226C6.58438 12.2187 6.56984 12.2109 6.5553 12.2032C6.54234 12.1963 6.52942 12.1895 6.51643 12.1823C6.50165 12.174 6.48684 12.1652 6.47202 12.1565C6.45923 12.149 6.44646 12.1415 6.43367 12.1337C6.41856 12.1243 6.40347 12.1145 6.38835 12.1046C6.37589 12.0965 6.36342 12.0885 6.35096 12.08C6.33562 12.0696 6.32035 12.0586 6.30507 12.0477C6.29282 12.0389 6.2806 12.0301 6.26841 12.021C6.25297 12.0094 6.23758 11.9973 6.22222 11.9851C6.21033 11.9757 6.19844 11.9663 6.18661 11.9565C6.17117 11.9437 6.1558 11.9304 6.14047 11.917C6.1288 11.9068 6.11719 11.8967 6.1056 11.8861C6.09024 11.8721 6.07501 11.8576 6.05984 11.843C6.04852 11.8321 6.03726 11.8211 6.02605 11.8099C6.01078 11.7945 5.99561 11.7786 5.98049 11.7625C5.9697 11.751 5.95893 11.7394 5.94824 11.7275C5.93315 11.7107 5.91823 11.6935 5.90339 11.676C5.89292 11.6637 5.88251 11.6511 5.87215 11.6384C5.85739 11.6203 5.84279 11.6017 5.82831 11.5827C5.81833 11.5697 5.80843 11.5564 5.79859 11.543C5.78416 11.5233 5.76989 11.5032 5.75576 11.4826C5.74631 11.4688 5.73696 11.4548 5.72764 11.4406C5.71367 11.4193 5.69984 11.3977 5.68626 11.3756C5.67727 11.3609 5.66838 11.3459 5.65955 11.3309C5.64619 11.3081 5.63296 11.285 5.61998 11.2613C5.61153 11.2458 5.60324 11.23 5.59499 11.2142C5.5822 11.1897 5.56955 11.1649 5.55722 11.1394C5.54932 11.1231 5.54164 11.1063 5.53393 11.0896C5.52188 11.0634 5.50993 11.037 5.4984 11.0099C5.49113 10.9928 5.48416 10.9753 5.47713 10.9579C5.46573 10.9296 5.45445 10.9012 5.44363 10.8719C5.43715 10.8543 5.43097 10.8362 5.42471 10.8183C5.41413 10.7881 5.40363 10.7577 5.39368 10.7263C5.38784 10.7079 5.38235 10.6889 5.37674 10.6701C5.3671 10.6378 5.35753 10.6054 5.34854 10.572C5.34348 10.5531 5.33883 10.5336 5.334 10.5143C5.3253 10.4797 5.31667 10.445 5.30871 10.4092C5.30439 10.3897 5.30054 10.3694 5.29644 10.3495C5.28884 10.3127 5.28127 10.2757 5.27449 10.2375C5.27097 10.2177 5.26798 10.1972 5.26468 10.177C5.2582 10.1373 5.25172 10.0975 5.24614 10.0564C5.24349 10.037 5.24142 10.0168 5.23901 9.99707C5.23371 9.954 5.22841 9.91095 5.22414 9.86639C5.22231 9.84732 5.22108 9.82734 5.21944 9.80796C5.2155 9.76144 5.21157 9.71489 5.20876 9.66673C5.20774 9.64932 5.20734 9.63106 5.20646 9.61343C5.20395 9.56199 5.20151 9.51039 5.20034 9.45712C5.20006 9.44438 5.20025 9.43099 5.20006 9.41811C5.1991 9.35888 5.19847 9.29921 5.19921 9.23766C5.1993 9.23785 5.19943 9.2381 5.19957 9.23837Z" fill="#9C6FE4"/>
<path d="M29.0115 16.8599C28.29 16.7133 27.5979 16.2482 27.4242 14.7104C27.3843 14.3573 27.3717 13.9478 27.3924 13.4724C27.4187 12.8665 27.5009 12.3647 27.6172 11.9491C27.7547 11.4574 27.94 11.0871 28.1372 10.8084C28.4448 10.3737 28.7814 10.162 29.0115 10.0649L42.9921 4.44495V5.03246L29.9998 10.1589C29.5779 10.337 28.2697 11.1188 28.1804 13.169C28.0874 15.3071 28.5128 16.0894 29.1776 16.0894L42.9921 10.5335V11.2399L41.9981 11.6395L31.7692 15.7513L29.0115 16.8599Z" fill="white"/>
<path d="M10.8265 4.13646C10.8265 4.13646 10.8265 4.13646 10.8265 4.13646C11.4799 4.27173 12.1398 4.41009 12.8045 4.54845L11.9324 4.87059L16.8279 5.78738L17.6223 5.49391C24.6377 6.73364 31.8814 7.18288 38.0385 3.43838C38.0385 3.43838 38.0385 3.43838 38.0385 3.43835L42.9921 4.44491L29.0115 10.0649L26.1137 9.47607L25.4983 9.35099L24.0939 9.06564L23.8044 9.00682L10.1573 6.23383L10.0064 6.20314L8.62275 5.922L8.16561 5.82909L7.13609 5.61991L10.8265 4.13646Z" fill="#925FE2"/>
<path d="M28.1804 13.169C28.2696 11.1188 29.5779 10.337 29.9998 10.1589L42.9921 5.03247V6.05996V10.5335L29.1776 16.0893C28.5128 16.0893 28.0873 15.3071 28.1804 13.169Z" fill="#F2F2F2"/>
<path d="M5.19951 9.23843C5.20017 9.16616 5.20178 9.09267 5.20506 9.0169C5.22416 8.57818 5.27831 8.1841 5.35741 7.83227L5.35714 7.83222C5.38253 7.71892 5.41063 7.61022 5.44094 7.50581C5.44162 7.50338 5.44234 7.50092 5.44302 7.49849C5.47297 7.39582 5.5052 7.29751 5.53934 7.2034C5.54057 7.19999 5.54183 7.19657 5.54309 7.19315C5.5772 7.09976 5.61319 7.01052 5.65086 6.92551C5.65206 6.92275 5.65332 6.92004 5.65455 6.91728C5.69279 6.83149 5.73264 6.74976 5.77391 6.67255C5.77394 6.67249 5.77394 6.67246 5.77396 6.67241C6.19489 5.88515 6.75589 5.54278 7.13598 5.62002L8.16549 5.8292L8.62263 5.9221L10.0063 6.20324L10.1572 6.23394L23.8043 9.00692L24.0938 9.06574L25.4982 9.3511L26.1136 9.47617L29.0114 10.065C28.7813 10.1621 28.4447 10.3738 28.1371 10.8084C27.9399 11.0872 27.7546 11.4574 27.6171 11.9492C27.5008 12.3648 27.4186 12.8666 27.3922 13.4725C27.3716 13.9479 27.3842 14.3574 27.4241 14.7105C27.5978 16.2483 28.2899 16.7134 29.0114 16.86L27.2864 16.5095L24.919 16.0284L24.8797 16.0204L22.2938 15.495L22.1311 15.462L21.7734 15.3892L9.63591 12.923L9.34307 12.8635L8.88907 12.7712L7.13595 12.415C7.1131 12.4102 7.08973 12.4049 7.0659 12.399C7.05704 12.3969 7.04781 12.3942 7.03881 12.3919C7.02774 12.389 7.01659 12.386 7.00541 12.383C7.00486 12.3829 7.00434 12.3828 7.0038 12.3826C7.00014 12.3816 6.99661 12.3808 6.99292 12.3797C6.9824 12.3767 6.97157 12.3733 6.96091 12.3701C6.94651 12.3658 6.93219 12.3616 6.91754 12.3569C6.90578 12.3531 6.89376 12.3488 6.88187 12.3448C6.86801 12.34 6.85423 12.3355 6.84016 12.3304C6.82745 12.3258 6.81452 12.3206 6.80167 12.3157C6.78812 12.3105 6.77464 12.3055 6.76092 12.2999C6.74747 12.2944 6.73386 12.2884 6.7203 12.2826C6.70702 12.2768 6.69379 12.2713 6.6804 12.2652C6.66635 12.2588 6.65214 12.2519 6.63798 12.2451C6.62489 12.2388 6.61185 12.2327 6.59873 12.2261C6.58427 12.2188 6.56973 12.2109 6.55519 12.2032C6.54223 12.1963 6.5293 12.1896 6.51632 12.1823C6.50153 12.1741 6.48672 12.1653 6.4719 12.1566C6.45911 12.149 6.44635 12.1416 6.43356 12.1337C6.41844 12.1244 6.40335 12.1145 6.38824 12.1047C6.37578 12.0966 6.36331 12.0885 6.35085 12.0801C6.33551 12.0697 6.32024 12.0587 6.30496 12.0477C6.29271 12.0389 6.28049 12.0302 6.2683 12.0211C6.25286 12.0095 6.23747 11.9973 6.22211 11.9852C6.21022 11.9757 6.19833 11.9663 6.18649 11.9565C6.17105 11.9438 6.15569 11.9305 6.14036 11.9171C6.12868 11.9069 6.11707 11.8967 6.10548 11.8862C6.09012 11.8722 6.0749 11.8577 6.05973 11.843C6.04841 11.8321 6.03715 11.8212 6.02594 11.8099C6.01067 11.7945 5.9955 11.7787 5.98038 11.7626C5.96958 11.751 5.95881 11.7394 5.94813 11.7275C5.93304 11.7108 5.91812 11.6936 5.90327 11.6761C5.89281 11.6637 5.88239 11.6512 5.87203 11.6385C5.85727 11.6203 5.84268 11.6017 5.82819 11.5828C5.81821 11.5697 5.80832 11.5565 5.79848 11.5431C5.78405 11.5233 5.76978 11.5032 5.75565 11.4827C5.74619 11.4689 5.73684 11.4548 5.72752 11.4407C5.71356 11.4194 5.69973 11.3977 5.68614 11.3756C5.67715 11.361 5.66827 11.346 5.65944 11.3309C5.64607 11.3081 5.63284 11.285 5.61986 11.2613C5.61142 11.2459 5.60313 11.2301 5.59488 11.2142C5.58209 11.1897 5.56943 11.1649 5.5571 11.1395C5.54921 11.1231 5.54153 11.1064 5.53382 11.0896C5.52176 11.0635 5.50982 11.0371 5.49829 11.0099C5.49101 10.9929 5.48405 10.9754 5.47702 10.9579C5.46562 10.9297 5.45433 10.9012 5.44351 10.8719C5.43703 10.8544 5.43085 10.8363 5.42459 10.8184C5.41402 10.7881 5.40352 10.7577 5.39357 10.7264C5.38772 10.708 5.38223 10.689 5.37663 10.6701C5.36698 10.6379 5.35741 10.6054 5.34842 10.572C5.34336 10.5532 5.33872 10.5336 5.33388 10.5144C5.32519 10.4798 5.31655 10.4451 5.3086 10.4093C5.30428 10.3897 5.30042 10.3695 5.29632 10.3496C5.28872 10.3127 5.28115 10.2758 5.27438 10.2376C5.27085 10.2178 5.26787 10.1972 5.26456 10.1771C5.25809 10.1373 5.25161 10.0976 5.24603 10.0565C5.24338 10.0371 5.2413 10.0168 5.2389 9.99713C5.23359 9.95406 5.22829 9.91101 5.22403 9.86645C5.2222 9.84738 5.22097 9.8274 5.21933 9.80802C5.21539 9.7615 5.21145 9.71495 5.20864 9.66679C5.20763 9.64938 5.20722 9.63112 5.20634 9.61349C5.20383 9.56205 5.2014 9.51045 5.20022 9.45717C5.19995 9.44444 5.20014 9.43104 5.19995 9.41817C5.19899 9.35894 5.19836 9.29927 5.1991 9.23772C5.19924 9.23791 5.19937 9.23816 5.19951 9.23843Z" fill="#925FE2"/>
<path d="M11.9325 4.87065L12.8045 4.5485L21.6771 1.27087L26.5726 2.18767L17.6224 5.49399L16.828 5.78744L11.9325 4.87065H11.9325H11.9325Z" fill="white"/>
<path d="M39.8533 4.72773L34.8562 6.57373L34.0782 6.4041L39.0754 4.55811L39.8533 4.72773Z" fill="white"/>
<path d="M38.5378 4.43074L33.5407 6.27673L32.7628 6.10711L37.76 4.26111L38.5378 4.43074Z" fill="white"/>
<path d="M23.9962 14.0145C23.9962 14.0143 23.9962 14.0141 23.9962 14.0139C24.0032 13.869 24.0127 13.7242 24.0264 13.5802C24.0971 12.8349 24.2361 12.0842 24.4674 11.3666C24.4674 11.3666 24.4674 11.3665 24.4674 11.3665C24.506 11.2468 24.5474 11.1281 24.5914 11.0104C24.6085 10.9644 24.6253 10.9183 24.6432 10.8725C24.6604 10.8293 24.678 10.7863 24.6958 10.7433C24.7386 10.6398 24.7829 10.5368 24.8307 10.4354C24.8655 10.3618 24.9032 10.2895 24.941 10.2173C25.1005 9.91287 25.2858 9.62137 25.4983 9.35107L26.1137 9.47615L26.2463 9.5031C26.0103 9.7621 25.8082 10.0455 25.6347 10.3456C25.6339 10.347 25.6332 10.3484 25.6324 10.3498C25.4253 10.7088 25.2605 11.0924 25.1288 11.4881C25.1288 11.4884 25.1287 11.4886 25.1286 11.4889C25.0832 11.6254 25.0403 11.7628 25.0027 11.9018C24.807 12.6245 24.6694 13.388 24.6476 14.1463C24.6438 14.2754 24.6437 14.4043 24.6468 14.5328C24.6469 14.5369 24.6467 14.5411 24.6468 14.5452C24.6503 14.6773 24.6576 14.809 24.6694 14.94C24.7028 15.3138 24.7825 15.6817 24.9191 16.0284L24.8798 16.0204L24.1699 15.8762C24.1464 15.7917 24.1262 15.7065 24.1077 15.6209C24.1011 15.5905 24.0956 15.5599 24.0897 15.5294C24.0789 15.4746 24.0687 15.4196 24.0598 15.3644C24.0537 15.3263 24.0481 15.2882 24.0427 15.25C24.0363 15.2036 24.0306 15.1571 24.0254 15.1105C24.0204 15.0664 24.0154 15.0224 24.0115 14.9783C24.0084 14.9435 24.0062 14.9087 24.0037 14.8739C23.9891 14.6675 23.9839 14.4598 23.988 14.2519C23.988 14.251 23.988 14.2502 23.988 14.2494C23.9897 14.171 23.9924 14.0928 23.9962 14.0145Z" fill="#9C6FE4"/>
<path d="M21.6584 13.9754C21.66 13.9131 21.6622 13.8508 21.6653 13.7885C21.6659 13.7766 21.6666 13.7648 21.6672 13.7529C21.6709 13.683 21.6752 13.6131 21.6806 13.5433C21.6852 13.483 21.6897 13.4226 21.6954 13.3625C21.7728 12.5474 21.9297 11.725 22.2022 10.9476C22.2457 10.8236 22.2919 10.7006 22.3414 10.5791C22.391 10.4572 22.4437 10.3366 22.4998 10.2177C22.5425 10.1274 22.5889 10.0387 22.6366 9.95087C22.663 9.90236 22.6893 9.85379 22.7167 9.80585C22.8982 9.48909 23.108 9.18821 23.349 8.91431L23.8045 9.00683L24.094 9.06565C24.0787 9.09798 24.0586 9.12996 24.0287 9.16036C23.7952 9.3976 23.5948 9.65899 23.4193 9.93576C23.4192 9.93584 23.4192 9.93592 23.4191 9.93598C23.3664 10.0191 23.3166 10.1039 23.2685 10.1898C23.2631 10.1996 23.2575 10.2093 23.252 10.2192C23.2071 10.3007 23.1645 10.3834 23.1236 10.4671C23.1161 10.4824 23.1088 10.4978 23.1014 10.5132C23.0624 10.5949 23.025 10.6775 22.9896 10.761C22.9829 10.7768 22.9765 10.7929 22.9699 10.8088C22.9341 10.8953 22.8995 10.9823 22.8674 11.0704C22.8673 11.0704 22.8673 11.0705 22.8673 11.0706C22.7938 11.2721 22.728 11.4767 22.6719 11.684C22.498 12.3263 22.3713 13.0008 22.3294 13.6752C22.3294 13.6753 22.3294 13.6755 22.3294 13.6756C22.3208 13.8142 22.3168 13.9528 22.3155 14.0912C22.3151 14.1487 22.3148 14.2063 22.3158 14.2637C22.3165 14.3082 22.3177 14.3526 22.3193 14.3969C22.3234 14.5057 22.3288 14.6142 22.3385 14.7222C22.3632 14.9983 22.4127 15.2714 22.4917 15.5351L22.294 15.4949L22.1313 15.4618L21.7736 15.3891C21.7568 15.3104 21.7422 15.2312 21.7293 15.1516C21.7244 15.1214 21.7208 15.091 21.7164 15.0607C21.7093 15.0117 21.7021 14.9626 21.6963 14.9133C21.6918 14.8745 21.6884 14.8354 21.6846 14.7965C21.6808 14.7562 21.6767 14.7159 21.6737 14.6754C21.6703 14.6305 21.6679 14.5855 21.6655 14.5404C21.6637 14.5066 21.6618 14.4728 21.6605 14.4389C21.6586 14.3884 21.6575 14.3379 21.6567 14.2873C21.6563 14.2599 21.6559 14.2325 21.6558 14.2051C21.6555 14.149 21.6559 14.0929 21.657 14.0368C21.6574 14.0163 21.6578 13.9959 21.6584 13.9754Z" fill="#9C6FE4"/>
<path d="M8.89072 11.2934C8.89618 11.1783 8.9017 11.0633 8.90969 10.9484L8.91228 10.9489C8.96815 10.1431 9.08533 9.34189 9.26572 8.55506L9.26438 8.55482C9.28499 8.46489 9.30926 8.3759 9.33146 8.28638C9.35764 8.18093 9.38205 8.07505 9.41048 7.9702C9.46427 7.7713 9.52194 7.57346 9.5839 7.37702L9.58428 7.37711C9.58765 7.36645 9.59032 7.35559 9.59371 7.34496C9.71636 6.95905 9.85507 6.57863 10.0064 6.20325L10.1574 6.23394L10.6693 6.338C10.5115 6.71899 10.3704 7.10668 10.2449 7.49931C10.2449 7.4995 10.2448 7.49969 10.2448 7.49988C10.1831 7.69291 10.1254 7.88722 10.0717 8.08256C10.0715 8.08357 10.0712 8.08458 10.0709 8.0856C10.0171 8.28141 9.96732 8.47828 9.92149 8.67609C9.92146 8.67617 9.92146 8.67628 9.92143 8.67636C9.73828 9.46685 9.6196 10.272 9.56728 11.0821C9.56725 11.0823 9.56726 11.0825 9.56723 11.0827C9.56045 11.188 9.55485 11.2934 9.5502 11.3988C9.5496 11.4127 9.54908 11.4266 9.5485 11.4405C9.54462 11.5347 9.54156 11.629 9.53946 11.7233C9.53861 11.7639 9.53831 11.8045 9.53779 11.845C9.53678 11.9168 9.53571 11.9886 9.53577 12.0604C9.53599 12.178 9.53719 12.2957 9.54028 12.4134C9.54457 12.5784 9.55165 12.7432 9.56146 12.9078L9.48977 12.8933L9.34327 12.8635L8.88927 12.7712C8.87968 12.5709 8.87552 12.3704 8.87382 12.1699C8.87328 12.1116 8.87314 12.0533 8.87325 11.995C8.87374 11.8205 8.87659 11.6461 8.88293 11.4717C8.885 11.4121 8.8879 11.3528 8.89072 11.2934Z" fill="#9C6FE4"/>
<path d="M6.85614 10.9832C6.85773 10.9403 6.86084 10.8975 6.86278 10.8546C6.86765 10.7483 6.87227 10.642 6.87929 10.5358L6.88227 10.5364C6.9347 9.74245 7.04498 8.95245 7.21825 8.17634L7.21781 8.17626C7.26253 7.97594 7.31148 7.7766 7.36431 7.57836C7.39195 7.47436 7.42362 7.37158 7.45347 7.26824C7.47957 7.17799 7.5036 7.08711 7.53137 6.99734L7.53274 6.99759C7.54465 6.959 7.55457 6.91975 7.56682 6.88124C7.68427 6.51172 7.81631 6.14722 7.96008 5.78735L8.16554 5.82909L8.62268 5.92199C8.46164 6.31474 8.31858 6.71456 8.19175 7.11947C8.07015 7.50776 7.96467 7.90094 7.87516 8.29775V8.29781C7.69927 9.07758 7.58576 9.87124 7.537 10.6694V10.6695C7.52443 10.8751 7.51636 11.0811 7.51215 11.2871C7.51177 11.3062 7.51166 11.3252 7.51136 11.3442C7.50803 11.546 7.50811 11.7478 7.51336 11.9496C7.51811 12.1322 7.52705 12.3145 7.53856 12.4966L7.13603 12.4148C7.09418 12.4061 7.0505 12.3954 7.00546 12.3828C7.00491 12.3827 7.0044 12.3826 7.00385 12.3824C6.95853 12.3698 6.91176 12.3551 6.86404 12.3384C6.85396 12.1364 6.84939 11.9342 6.84731 11.7319C6.84671 11.6766 6.84633 11.6213 6.84633 11.566C6.84641 11.3718 6.84882 11.1774 6.85614 10.9832Z" fill="#9C6FE4"/>
<path d="M24.1077 15.6208C24.1012 15.5904 24.0957 15.5599 24.0897 15.5294C24.0789 15.4745 24.0687 15.4196 24.0598 15.3643C24.0537 15.3263 24.0481 15.2881 24.0428 15.2499C24.0364 15.2035 24.0306 15.157 24.0254 15.1104C24.0204 15.0664 24.0154 15.0224 24.0115 14.9782C24.0084 14.9435 24.0062 14.9087 24.0038 14.8739C23.9892 14.6674 23.984 14.4597 23.988 14.2518C23.988 14.251 23.988 14.2501 23.9881 14.2493C23.9896 14.171 23.9924 14.0927 23.9962 14.0145C23.9962 14.0143 23.9962 14.0141 23.9962 14.0139L24.6476 14.1463C24.6439 14.2753 24.6437 14.4042 24.6468 14.5328C24.6469 14.5369 24.6467 14.541 24.6468 14.5451C24.6503 14.6772 24.6576 14.8089 24.6694 14.9399C24.7028 15.3137 24.7825 15.6816 24.9191 16.0283L24.8798 16.0204L24.1699 15.8761C24.1465 15.7917 24.1262 15.7064 24.1077 15.6208Z" fill="#9C6FE4"/>
<path d="M22.3293 13.6752C22.3293 13.6753 22.3293 13.6755 22.3293 13.6757C22.3207 13.8143 22.3166 13.9529 22.3154 14.0912C22.315 14.1488 22.3147 14.2063 22.3157 14.2637C22.3164 14.3082 22.3176 14.3526 22.3191 14.397C22.3233 14.5057 22.3287 14.6143 22.3383 14.7222C22.363 14.9983 22.4125 15.2714 22.4916 15.5351L22.2938 15.4949L22.1312 15.4619L21.7734 15.3892C21.7567 15.3104 21.7421 15.2312 21.7292 15.1516C21.7242 15.1215 21.7206 15.0911 21.7163 15.0608C21.7092 15.0117 21.7019 14.9627 21.6962 14.9133C21.6916 14.8745 21.6883 14.8355 21.6845 14.7965C21.6806 14.7562 21.6766 14.7159 21.6735 14.6755C21.6701 14.6305 21.6677 14.5855 21.6653 14.5405C21.6635 14.5066 21.6616 14.4729 21.6604 14.439C21.6584 14.3885 21.6573 14.3379 21.6565 14.2873C21.6561 14.2599 21.6557 14.2326 21.6556 14.2051C21.6554 14.1491 21.6558 14.0929 21.6568 14.0368C21.6572 14.0163 21.6577 13.9959 21.6583 13.9754C21.6599 13.9131 21.6621 13.8507 21.6652 13.7885C21.6657 13.7766 21.6665 13.7648 21.6671 13.7529C21.6708 13.683 21.6751 13.6131 21.6805 13.5433L22.3293 13.6752Z" fill="#9C6FE4"/>
<path d="M8.87323 11.9949C8.87372 11.8204 8.87656 11.6459 8.88291 11.4715C8.88504 11.4121 8.88793 11.3528 8.89075 11.2933C8.89622 11.1783 8.90174 11.0633 8.90972 10.9484L8.91231 10.9489L9.56726 11.082C9.56726 11.0822 9.56726 11.0824 9.56721 11.0826C9.56043 11.1879 9.55482 11.2933 9.55018 11.3987C9.54958 11.4126 9.54906 11.4265 9.54848 11.4404C9.5446 11.5346 9.54154 11.6289 9.53943 11.7232C9.53859 11.7638 9.53829 11.8044 9.53777 11.845C9.53676 11.9167 9.53569 11.9885 9.53575 12.0603C9.53597 12.178 9.53717 12.2956 9.54026 12.4133C9.54455 12.5783 9.55163 12.7431 9.56144 12.9077L9.48974 12.8932L9.34324 12.8634L8.88924 12.7712C8.87965 12.5709 8.8755 12.3703 8.8738 12.1698C8.87326 12.1115 8.87312 12.0532 8.87323 11.9949Z" fill="#9C6FE4"/>
<path d="M6.84736 11.732C6.84675 11.6767 6.84637 11.6215 6.84637 11.5661C6.84645 11.3718 6.84886 11.1775 6.85618 10.9833C6.85777 10.9404 6.86089 10.8976 6.86283 10.8547C6.86769 10.7484 6.87231 10.6421 6.87934 10.5359L6.88232 10.5365L7.53702 10.6695V10.6696C7.52444 10.8753 7.51638 11.0812 7.51217 11.2872C7.51179 11.3063 7.51168 11.3253 7.51137 11.3443C7.50804 11.5461 7.50812 11.7479 7.51337 11.9498C7.51813 12.1323 7.52707 12.3146 7.53857 12.4967L7.13604 12.4149C7.0942 12.4062 7.05052 12.3955 7.00548 12.383C7.00493 12.3828 7.00441 12.3827 7.00386 12.3825C6.95854 12.3699 6.91178 12.3552 6.86405 12.3385C6.85402 12.1365 6.84946 11.9343 6.84736 11.732Z" fill="#9C6FE4"/>
<path d="M24.4673 11.3666L24.4674 11.3665C24.506 11.2467 24.5473 11.1281 24.5914 11.0104C24.6084 10.9643 24.6253 10.9183 24.6432 10.8725C24.6603 10.8293 24.6779 10.7862 24.6958 10.7433C24.7386 10.6397 24.7828 10.5367 24.8307 10.4354C24.8654 10.3618 24.9031 10.2895 24.941 10.2173L25.6346 10.3456C25.6339 10.347 25.6332 10.3484 25.6324 10.3498C25.4253 10.7088 25.2605 11.0924 25.1288 11.4881C25.1287 11.4884 25.1286 11.4886 25.1285 11.4889L24.4673 11.3666Z" fill="white"/>
<path d="M23.2519 10.2193C23.207 10.3008 23.1644 10.3835 23.1235 10.4672C23.116 10.4825 23.1087 10.4979 23.1013 10.5133C23.0623 10.595 23.0249 10.6775 22.9895 10.761C22.9828 10.7769 22.9764 10.793 22.9698 10.8089C22.934 10.8954 22.8994 10.9824 22.8673 11.0705C22.8672 11.0705 22.8672 11.0706 22.8672 11.0706L22.2022 10.9476C22.2457 10.8236 22.292 10.7007 22.3414 10.5791C22.391 10.4572 22.4437 10.3367 22.4998 10.2178C22.5424 10.1274 22.5888 10.0388 22.6366 9.95093C22.6629 9.90242 22.6892 9.85385 22.7167 9.80591L23.4192 9.93585C23.4192 9.93593 23.4191 9.93598 23.4191 9.93607C23.3663 10.0192 23.3165 10.104 23.2685 10.1899C23.263 10.1997 23.2574 10.2094 23.2519 10.2193Z" fill="white"/>
<path d="M10.0708 8.08547C10.0171 8.28128 9.96726 8.47816 9.92142 8.67597C9.92142 8.67605 9.92137 8.67613 9.92134 8.67624L9.26568 8.55499L9.26434 8.55475C9.28495 8.46482 9.30922 8.37583 9.33142 8.28631C9.3576 8.18086 9.38201 8.07497 9.41043 7.97013C9.46423 7.77123 9.5219 7.57339 9.58386 7.37695L9.58424 7.37703L10.2449 7.49921C10.2448 7.4994 10.2448 7.49959 10.2447 7.49979C10.183 7.69281 10.1254 7.88712 10.0717 8.08246C10.0714 8.08342 10.0711 8.08443 10.0708 8.08547Z" fill="white"/>
<path d="M7.87518 8.29775V8.2978L7.21827 8.17631L7.21783 8.17623C7.26254 7.97591 7.3115 7.77657 7.36433 7.57833C7.39196 7.47433 7.42364 7.37155 7.45349 7.26821C7.47959 7.17796 7.50362 7.08708 7.53139 6.99731L7.53275 6.99756L8.19177 7.11944C8.07014 7.50775 7.96467 7.90093 7.87518 8.29775Z" fill="white"/>
<path d="M9.41045 7.97016C9.38202 8.075 9.35764 8.18089 9.33143 8.28634C9.30923 8.37588 9.28496 8.46488 9.26435 8.55477L9.26569 8.55502L7.87519 8.29785V8.29779C7.96468 7.90098 8.07019 7.5078 8.19179 7.11951L9.58423 7.37704L9.58384 7.37695C9.52188 7.57342 9.46424 7.77126 9.41045 7.97016Z" fill="url(#paint4_linear_236_69)"/>
<path d="M22.4998 10.2178C22.4437 10.3366 22.391 10.4572 22.3414 10.5791C22.2919 10.7006 22.2457 10.8236 22.2022 10.9476L9.92139 8.67632C9.92139 8.67624 9.92142 8.67616 9.92144 8.67605C9.96728 8.47824 10.0171 8.28137 10.0708 8.08555C10.0711 8.08454 10.0714 8.08353 10.0717 8.08252C10.1254 7.88717 10.183 7.69287 10.2447 7.49984C10.2448 7.49965 10.2448 7.49946 10.2449 7.49927L22.7167 9.8059C22.6892 9.85384 22.6629 9.90241 22.6366 9.95093C22.5889 10.0388 22.5424 10.1274 22.4998 10.2178Z" fill="url(#paint5_linear_236_69)"/>
<path d="M7.53144 6.99738C7.5037 7.08714 7.47965 7.17799 7.45354 7.26827C7.4237 7.37162 7.39202 7.47439 7.36439 7.57839C7.31153 7.77663 7.2626 7.97597 7.21788 8.17629L5.35754 7.83223L5.35726 7.83217C5.38266 7.71888 5.41075 7.61018 5.44106 7.50577C5.44175 7.50333 5.44246 7.50087 5.44314 7.49844C5.4731 7.39578 5.50533 7.29746 5.53946 7.20336C5.54069 7.19994 5.54195 7.19652 5.54321 7.19311C5.57732 7.09971 5.61332 7.01047 5.65098 6.92546C5.65218 6.9227 5.65344 6.92 5.65467 6.91724C5.69291 6.83144 5.73276 6.74971 5.77403 6.6725C5.77406 6.67245 5.77406 6.67242 5.77409 6.67236L7.53284 6.99765L7.53144 6.99738Z" fill="url(#paint6_linear_236_69)"/>
<path d="M25.1288 11.4881C25.2605 11.0924 25.4253 10.7088 25.6324 10.3498C25.6332 10.3484 25.6339 10.347 25.6347 10.3456L28.1372 10.8084C27.9399 11.0872 27.7547 11.4574 27.6171 11.9492L25.1286 11.4889C25.1286 11.4886 25.1288 11.4884 25.1288 11.4881Z" fill="url(#paint7_linear_236_69)"/>
<path d="M24.6959 10.7433C24.678 10.7862 24.6604 10.8293 24.6433 10.8725C24.6254 10.9182 24.6085 10.9643 24.5915 11.0104C24.5475 11.1281 24.5061 11.2467 24.4675 11.3665C24.4675 11.3665 24.4675 11.3665 24.4675 11.3666L22.8672 11.0706C22.8672 11.0705 22.8673 11.0705 22.8673 11.0704C22.8994 10.9823 22.9341 10.8953 22.9699 10.8089C22.9764 10.7929 22.9828 10.7769 22.9895 10.761C23.0249 10.6775 23.0624 10.5949 23.1014 10.5132C23.1087 10.4979 23.116 10.4825 23.1235 10.4672C23.1644 10.3835 23.2071 10.3007 23.252 10.2192C23.2574 10.2094 23.263 10.1996 23.2685 10.1898C23.3165 10.1039 23.3663 10.0191 23.419 9.93601C23.4191 9.93593 23.4192 9.93585 23.4192 9.93579L24.941 10.2173C24.9032 10.2895 24.8655 10.3618 24.8308 10.4354C24.783 10.5367 24.7387 10.6397 24.6959 10.7433Z" fill="url(#paint8_linear_236_69)"/>
<path d="M9.56132 12.9078C9.55151 12.7431 9.54443 12.5783 9.54014 12.4134C9.53708 12.2957 9.53585 12.178 9.53563 12.0603C9.53557 11.9885 9.53664 11.9167 9.53765 11.845C9.53817 11.8044 9.5385 11.7638 9.53932 11.7232C9.54142 11.6289 9.54448 11.5347 9.54836 11.4404C9.54891 11.4266 9.54946 11.4126 9.55006 11.3987C9.55471 11.2933 9.56028 11.1879 9.56709 11.0826C9.56712 11.0824 9.56711 11.0822 9.56714 11.082L21.6805 13.5434C21.6751 13.6132 21.6708 13.683 21.6671 13.753C21.6665 13.7648 21.6657 13.7767 21.6652 13.7885C21.6621 13.8508 21.6599 13.9131 21.6583 13.9755C21.6577 13.9959 21.6572 14.0164 21.6568 14.0369C21.6558 14.093 21.6554 14.1491 21.6556 14.2052C21.6557 14.2326 21.6561 14.26 21.6565 14.2874C21.6573 14.338 21.6584 14.3885 21.6604 14.439C21.6616 14.4729 21.6635 14.5067 21.6653 14.5405C21.6677 14.5856 21.6701 14.6306 21.6735 14.6755C21.6766 14.716 21.6806 14.7563 21.6845 14.7966C21.6882 14.8356 21.6916 14.8746 21.6962 14.9134C21.7019 14.9627 21.7091 15.0118 21.7163 15.0609C21.7206 15.0911 21.7243 15.1215 21.7292 15.1517C21.7421 15.2313 21.7567 15.3105 21.7734 15.3892L9.63596 12.923L9.34312 12.8635L9.48962 12.8932L9.56132 12.9078Z" fill="white"/>
<path d="M6.7791 10.5155L6.87935 10.5359C6.87233 10.6421 6.86771 10.7484 6.86284 10.8547C6.86087 10.8976 6.85778 10.9404 6.8562 10.9833C6.84887 11.1775 6.84647 11.3718 6.84639 11.5661C6.84639 11.6215 6.84677 11.6767 6.84737 11.7321C6.84945 11.9343 6.85401 12.1365 6.8641 12.3385C6.91185 12.3553 6.95859 12.3699 7.00391 12.3825C7.00024 12.3816 6.99672 12.3807 6.99303 12.3797C6.98251 12.3767 6.97168 12.3732 6.96102 12.37C6.94662 12.3657 6.93229 12.3616 6.91764 12.3569C6.90589 12.3531 6.89386 12.3488 6.88197 12.3447C6.86812 12.34 6.85434 12.3354 6.84026 12.3304C6.82755 12.3257 6.81463 12.3206 6.80178 12.3157C6.78822 12.3104 6.77475 12.3054 6.76103 12.2998C6.74758 12.2943 6.73397 12.2883 6.72041 12.2825C6.70713 12.2768 6.6939 12.2712 6.6805 12.2651C6.66646 12.2588 6.65224 12.2518 6.63808 12.245C6.62499 12.2388 6.61196 12.2327 6.59884 12.226C6.58438 12.2187 6.56984 12.2109 6.5553 12.2032C6.54234 12.1963 6.52941 12.1895 6.51643 12.1823C6.50164 12.174 6.48683 12.1652 6.47201 12.1565C6.45922 12.149 6.44645 12.1416 6.43366 12.1337C6.41855 12.1244 6.40346 12.1145 6.38835 12.1047C6.37588 12.0965 6.36342 12.0885 6.35095 12.08C6.33562 12.0696 6.32034 12.0587 6.30506 12.0477C6.29282 12.0389 6.2806 12.0301 6.26841 12.021C6.25297 12.0094 6.23758 11.9973 6.22222 11.9851C6.21033 11.9757 6.19844 11.9663 6.1866 11.9565C6.17116 11.9437 6.1558 11.9304 6.14047 11.917C6.1288 11.9068 6.11718 11.8967 6.10559 11.8861C6.09023 11.8721 6.075 11.8576 6.05983 11.843C6.04852 11.8321 6.03726 11.8211 6.02605 11.8099C6.01077 11.7945 5.9956 11.7786 5.98049 11.7625C5.96969 11.751 5.95892 11.7394 5.94823 11.7275C5.93315 11.7107 5.91822 11.6935 5.90338 11.676C5.89291 11.6637 5.8825 11.6511 5.87214 11.6384C5.85738 11.6203 5.84279 11.6017 5.8283 11.5827C5.81832 11.5697 5.80843 11.5564 5.79859 11.543C5.78416 11.5233 5.76989 11.5032 5.75576 11.4826C5.7463 11.4688 5.73695 11.4548 5.72763 11.4406C5.71367 11.4193 5.69984 11.3977 5.68625 11.3756C5.67726 11.3609 5.66837 11.346 5.65955 11.3309C5.64618 11.3081 5.63295 11.285 5.61997 11.2613C5.61152 11.2458 5.60324 11.23 5.59499 11.2142C5.5822 11.1897 5.56954 11.1649 5.55721 11.1394C5.54932 11.1231 5.54163 11.1064 5.53393 11.0896C5.52187 11.0634 5.50993 11.037 5.49839 11.0099C5.49112 10.9928 5.48415 10.9753 5.47713 10.9579C5.46573 10.9296 5.45444 10.9012 5.44362 10.8719C5.43714 10.8543 5.43096 10.8363 5.42471 10.8183C5.41413 10.7881 5.40363 10.7577 5.39368 10.7263C5.38783 10.708 5.38234 10.6889 5.37674 10.6701C5.36709 10.6378 5.35752 10.6054 5.34853 10.572C5.34347 10.5531 5.33883 10.5336 5.33399 10.5143C5.3253 10.4797 5.31666 10.445 5.3087 10.4092C5.30439 10.3897 5.30053 10.3694 5.29643 10.3495C5.28883 10.3127 5.28126 10.2757 5.27449 10.2376C5.27096 10.2177 5.26798 10.1972 5.26467 10.177C5.25819 10.1373 5.25171 10.0976 5.24614 10.0564C5.24349 10.037 5.24141 10.0168 5.239 9.99708C5.2337 9.95401 5.2284 9.91096 5.22414 9.8664C5.22231 9.84733 5.22108 9.82735 5.21944 9.80797C5.2155 9.76145 5.21156 9.7149 5.20875 9.66674C5.20774 9.64933 5.20733 9.63107 5.20645 9.61344C5.20394 9.562 5.20151 9.5104 5.20033 9.45712C5.20006 9.44439 5.20025 9.43099 5.20006 9.41812C5.1991 9.35889 5.19847 9.29922 5.19921 9.23767C5.19935 9.23792 5.19948 9.23816 5.19962 9.23843C5.61672 10.101 6.30859 10.4168 6.7791 10.5155Z" fill="white"/>
<path d="M7.5134 11.9498C7.50816 11.7479 7.50807 11.5461 7.51141 11.3443C7.51171 11.3253 7.51182 11.3063 7.5122 11.2872C7.51641 11.0812 7.52447 10.8753 7.53705 10.6696V10.6696L8.90967 10.9484C8.90169 11.0633 8.89617 11.1784 8.8907 11.2934C8.88788 11.3528 8.88499 11.4122 8.88286 11.4716C8.87654 11.646 8.87367 11.8205 8.87318 11.9949C8.87304 12.0533 8.87321 12.1115 8.87375 12.1698C8.87545 12.3704 8.8796 12.5709 8.8892 12.7712L7.13608 12.415L7.53861 12.4967C7.5271 12.3146 7.51816 12.1323 7.5134 11.9498Z" fill="white"/>
<path d="M22.3383 14.7222C22.3287 14.6142 22.3233 14.5056 22.3191 14.3969C22.3176 14.3526 22.3164 14.3082 22.3157 14.2637C22.3147 14.2063 22.315 14.1487 22.3154 14.0912C22.3166 13.9528 22.3207 13.8142 22.3293 13.6756C22.3293 13.6755 22.3293 13.6753 22.3293 13.6752L23.9962 14.0139H23.9962C23.9962 14.0141 23.9962 14.0143 23.9962 14.0144C23.9924 14.0927 23.9896 14.1709 23.9881 14.2493C23.9881 14.2501 23.9881 14.2509 23.988 14.2518C23.9841 14.4597 23.9889 14.6674 24.0038 14.8738C24.0062 14.9086 24.0084 14.9434 24.0115 14.9781C24.0155 15.0223 24.0205 15.0663 24.0254 15.1104C24.0306 15.157 24.0364 15.2035 24.0428 15.2499C24.0481 15.2881 24.0537 15.3262 24.0598 15.3643C24.0687 15.4195 24.0789 15.4745 24.0897 15.5293C24.0957 15.5598 24.1011 15.5904 24.1077 15.6208C24.1262 15.7064 24.1465 15.7916 24.1699 15.8761L24.8799 16.0203L22.2939 15.4949L22.4917 15.5351C22.4125 15.2714 22.363 14.9983 22.3383 14.7222Z" fill="white"/>
<path d="M24.6694 14.9399C24.6576 14.8089 24.6503 14.6772 24.6469 14.5451C24.6467 14.541 24.6469 14.5369 24.6468 14.5328C24.6437 14.4042 24.6439 14.2753 24.6476 14.1462L27.4242 14.7104C27.5979 16.2482 28.29 16.7133 29.0115 16.8599L27.2865 16.5094L24.9191 16.0283C24.7825 15.6816 24.7028 15.3137 24.6694 14.9399Z" fill="white"/>
<path d="M28.1804 13.169C28.2696 11.1188 29.5779 10.337 29.9998 10.1589L42.9921 5.03247V6.05996L31.2344 10.6993C30.8126 10.8774 29.5043 11.6592 29.415 13.7093C29.3703 14.7371 29.4456 15.4507 29.6095 15.9157L42.9921 10.5335L29.1776 16.0893C28.5128 16.0893 28.0873 15.3071 28.1804 13.169Z" fill="url(#paint9_linear_236_69)"/>
<path d="M17.6219 5.49412L16.8279 5.78743L11.9325 4.87063H11.9325L12.8046 4.54846C14.3873 4.8779 15.9984 5.2071 17.6219 5.49412Z" fill="#925FE2"/>
<path d="M20.7013 22.0409C18.085 21.1081 10.1884 18.0929 6.76809 17.5112C5.44254 17.2857 5.53782 20.9155 5.43177 20.8422C4.52845 18.9847 4.62947 16.0587 5.96014 15.5726C6.58603 15.7752 21.7487 21.1392 21.7487 21.1392V21.1535V26.7253C21.7487 26.7253 21.3636 22.277 20.7013 22.0409Z" fill="#BDC7C7"/>
<path d="M22.9807 22.7374L21.7487 26.7254V21.1535L22.5624 20.9367L49.0358 13.8842V18.9731L48.2456 15.0763L22.9807 22.7374Z" fill="url(#paint10_linear_236_69)"/>
<path d="M21.7701 36.5394C21.7701 36.5394 22.5813 36.3152 22.7546 33.957C22.9359 31.4891 21.5927 31.1533 21.5927 31.1533L0.327934 25.2131L0.000135422 25.1215V24.4052L13.8338 28.0014L22.5624 30.2705C22.6131 30.2908 22.6617 30.3161 22.7094 30.3435C22.7198 30.3495 22.7303 30.3551 22.7406 30.3614C22.7824 30.3871 22.8228 30.4161 22.8622 30.447C22.8785 30.4599 22.8945 30.4734 22.9103 30.4871C22.9366 30.5097 22.9621 30.534 22.9873 30.5589C23.0169 30.5884 23.0458 30.6193 23.0739 30.6519C23.0856 30.6652 23.097 30.6789 23.1084 30.6927C23.1539 30.7487 23.1978 30.8081 23.2393 30.8717C23.8636 31.8278 24.0177 33.6199 23.7586 35.1382C23.7237 35.3429 23.6812 35.5426 23.6314 35.7346C23.6307 35.7374 23.63 35.7402 23.6293 35.743C23.6136 35.803 23.5972 35.8621 23.5801 35.9205C23.5767 35.9322 23.5731 35.9438 23.5696 35.9555C23.5356 36.0692 23.499 36.1799 23.4595 36.2864C23.4583 36.2896 23.4572 36.2929 23.456 36.2961C23.4401 36.3388 23.4233 36.3801 23.4064 36.4215C23.395 36.4497 23.3833 36.4777 23.3715 36.5052C23.3558 36.5417 23.3399 36.5779 23.3235 36.6132C23.3044 36.6541 23.2847 36.6937 23.2647 36.7329C23.2456 36.7703 23.2262 36.8067 23.2063 36.8425C23.1841 36.8824 23.1615 36.9217 23.1382 36.9595C23.1244 36.9821 23.1102 37.0039 23.096 37.0257C23.0708 37.0641 23.045 37.1011 23.0186 37.137C23.0073 37.1525 22.9962 37.1687 22.9846 37.1837C22.9471 37.2322 22.9085 37.278 22.8687 37.3211C22.8578 37.3329 22.8466 37.3436 22.8356 37.3549C22.8035 37.388 22.7707 37.4193 22.7371 37.4487C22.7244 37.4599 22.7118 37.4711 22.6988 37.4817C22.6545 37.5181 22.6093 37.5525 22.5626 37.5822C22.5625 37.5822 22.5625 37.5822 22.5624 37.5823L0.000135422 32.1967V31.4811L0.386974 31.571L20.638 36.2763L21.7701 36.5394Z" fill="#925FE2"/>
<path d="M23.2392 30.8717C23.1977 30.8081 23.1539 30.7487 23.1083 30.6927C23.097 30.6789 23.0855 30.6652 23.0739 30.6519C23.0458 30.6193 23.0169 30.5884 22.9872 30.5589C22.9621 30.534 22.9366 30.5097 22.9103 30.4871C22.8944 30.4734 22.8784 30.4599 22.8622 30.447C22.8227 30.4161 22.7824 30.3871 22.7406 30.3614C22.7303 30.3551 22.7198 30.3495 22.7094 30.3434C22.6617 30.3161 22.6131 30.2908 22.5624 30.2705L48.2456 20.5214C48.2826 20.5275 48.3186 20.536 48.3541 20.5457C48.3648 20.5486 48.3752 20.5523 48.3858 20.5556C48.4108 20.5633 48.4355 20.5716 48.4597 20.581C48.4708 20.5854 48.4817 20.5899 48.4927 20.5946C48.5169 20.6051 48.5407 20.6163 48.5642 20.6285C48.5732 20.6332 48.5823 20.6376 48.5911 20.6425C48.6212 20.6591 48.6506 20.6768 48.6792 20.6962C48.6807 20.6973 48.6824 20.6982 48.6839 20.6992C48.7165 20.7215 48.7481 20.7455 48.779 20.7712C48.7792 20.7714 48.7795 20.7717 48.7798 20.7719C48.8091 20.7964 48.8374 20.8226 48.8651 20.85C48.8692 20.8541 48.8732 20.8582 48.8772 20.8623C48.9019 20.8873 48.9259 20.9134 48.9493 20.9407C48.9528 20.9448 48.9564 20.9488 48.9598 20.953C48.9859 20.9839 49.0112 21.016 49.0358 21.0496C49.0345 21.0501 49.0332 21.0506 49.032 21.0511C40.4779 24.3774 31.8072 27.3583 23.2392 30.8717Z" fill="#B3BE11"/>
<path d="M9.34601e-05 24.4052L7.04381 22.5614C7.14612 22.5978 7.25072 22.6351 7.35828 22.6735L9.34601e-05 24.4052Z" fill="#B7CD00"/>
<path d="M20.3674 27.3103C18.2056 27.6356 16.0235 27.8622 13.8337 28.0014L8.7738e-05 24.4052L7.35827 22.6735C10.9966 23.9703 17.5284 26.2984 20.3674 27.3103Z" fill="#9C6FE4"/>
<path d="M22.5626 37.5822C22.6093 37.5525 22.6545 37.5181 22.6988 37.4817C22.7117 37.4711 22.7244 37.4599 22.7371 37.4487C22.7707 37.4193 22.8035 37.388 22.8356 37.3549C22.8466 37.3435 22.8578 37.3329 22.8687 37.3211C22.9084 37.278 22.9471 37.2322 22.9846 37.1837C22.9962 37.1687 23.0072 37.1525 23.0186 37.137C23.045 37.1011 23.0708 37.0641 23.0959 37.0257C23.1102 37.0039 23.1243 36.9821 23.1382 36.9595C23.1615 36.9217 23.184 36.8824 23.2063 36.8425C23.2261 36.8067 23.2456 36.7703 23.2646 36.7329C23.2846 36.6937 23.3044 36.6541 23.3235 36.6132C23.3399 36.5779 23.3557 36.5417 23.3715 36.5052C23.3833 36.4777 23.3949 36.4497 23.4064 36.4215C23.4232 36.3801 23.44 36.3388 23.456 36.2961C23.4572 36.2929 23.4582 36.2896 23.4594 36.2864C23.4989 36.1799 23.5355 36.0692 23.5696 35.9555C23.5731 35.9438 23.5767 35.9322 23.5801 35.9205C23.5972 35.8621 23.6136 35.803 23.6293 35.743C23.63 35.7402 23.6307 35.7374 23.6314 35.7346C23.6812 35.5426 23.7237 35.3429 23.7586 35.1382C28.895 33.0254 47.9255 26.4462 49.6083 24.7251C49.6086 24.7249 49.6089 24.7246 49.6091 24.7244C49.6085 24.7302 49.6074 24.7359 49.6067 24.7417C49.5892 24.8975 49.567 25.0515 49.5417 25.2035C49.536 25.238 49.5299 25.272 49.5238 25.3062C49.4964 25.46 49.4665 25.6121 49.4314 25.7592C49.4306 25.7626 49.4298 25.7659 49.429 25.7693C49.3709 26.0116 49.3025 26.2429 49.2245 26.4583C49.2222 26.4647 49.2199 26.4712 49.2175 26.4776C49.1927 26.5455 49.1669 26.6117 49.1401 26.6761C49.1376 26.6822 49.1351 26.688 49.1326 26.694C49.0781 26.8236 49.0197 26.9457 48.9577 27.059C48.954 27.0657 48.9504 27.0725 48.9467 27.0791C48.9171 27.1324 48.8865 27.1835 48.8553 27.2326C48.8501 27.2407 48.8449 27.2486 48.8397 27.2567C48.808 27.3053 48.7756 27.352 48.7423 27.3961C48.7389 27.4005 48.7355 27.4046 48.7321 27.409C48.6994 27.4514 48.6661 27.4916 48.6319 27.5294C48.6284 27.5333 48.625 27.5375 48.6214 27.5414C48.5866 27.5792 48.551 27.6139 48.5148 27.6466C48.508 27.6527 48.5013 27.6588 48.4944 27.6648C48.4585 27.6959 48.4219 27.7247 48.3846 27.7506C48.3782 27.755 48.3718 27.759 48.3654 27.7632C48.3261 27.7893 48.2863 27.8133 48.2455 27.8333C48.2169 27.8438 48.1161 27.8817 47.9511 27.9441C47.9039 27.9619 47.8516 27.9817 47.7941 28.0034C47.7367 28.0251 47.6742 28.0488 47.6068 28.0743C47.5394 28.0998 47.4671 28.1272 47.3902 28.1563C47.3132 28.1855 47.2316 28.2164 47.1455 28.249C47.1024 28.2653 47.0582 28.2821 47.0129 28.2993C46.8317 28.3679 46.6328 28.4433 46.4177 28.5249C46.3102 28.5656 46.1986 28.608 46.0832 28.6517C46.0255 28.6736 45.9668 28.6959 45.9072 28.7185C45.7879 28.7637 45.6649 28.8104 45.5383 28.8584C45.475 28.8824 45.4107 28.9068 45.3457 28.9315C45.2155 28.9809 45.0819 29.0316 44.9449 29.0835C44.8764 29.1095 44.8071 29.1358 44.737 29.1624C44.3864 29.2954 44.0157 29.4361 43.6278 29.5833C43.3562 29.6863 43.0762 29.7926 42.7887 29.9017C42.5012 30.0108 42.2063 30.1228 41.9049 30.2372C41.0437 30.5641 40.1296 30.9111 39.1856 31.2695C38.6192 31.4845 38.0421 31.7036 37.4591 31.9249C37.362 31.9618 37.2647 31.9988 37.1672 32.0358C36.7774 32.1838 36.3854 32.3326 35.9926 32.4818C35.7962 32.5564 35.5996 32.631 35.4031 32.7056C32.946 33.6386 30.489 34.5717 28.3914 35.3684C28.1723 35.4516 27.9575 35.5332 27.7467 35.6132C27.5306 35.6953 27.3194 35.7755 27.1129 35.854C27.0116 35.8925 26.9116 35.9305 26.8127 35.968C26.7006 36.0106 26.5902 36.0525 26.4814 36.0938C26.4424 36.1086 26.4031 36.1236 26.3645 36.1382C26.2191 36.1934 26.0772 36.2473 25.9382 36.3001C25.8745 36.3243 25.8116 36.3482 25.7492 36.3719C25.6531 36.4084 25.5586 36.4443 25.4659 36.4795C25.4127 36.4997 25.3601 36.5197 25.3081 36.5394C25.24 36.5653 25.1727 36.5909 25.1067 36.616C24.9166 36.6882 24.7354 36.757 24.5634 36.8223C24.5309 36.8347 24.4986 36.8469 24.4667 36.859C24.3854 36.8899 24.3066 36.9198 24.2298 36.949C24.2033 36.9591 24.1765 36.9692 24.1506 36.9791C23.2159 37.3341 22.6378 37.5537 22.5624 37.5824C22.5625 37.5822 22.5625 37.5822 22.5626 37.5822Z" fill="#7042C0"/>
<defs>
<linearGradient id="paint0_linear_236_69" x1="11.5497" y1="25.2131" x2="11.5497" y2="36.5395" gradientUnits="userSpaceOnUse">
<stop stop-color="#925FE2"/>
<stop offset="1" stop-color="#E2D4F7"/>
</linearGradient>
<linearGradient id="paint1_linear_236_69" x1="13.2951" y1="15.5726" x2="13.2951" y2="26.7253" gradientUnits="userSpaceOnUse">
<stop stop-color="#925FE2"/>
<stop offset="1" stop-color="#E2D4F7"/>
</linearGradient>
<linearGradient id="paint2_linear_236_69" x1="36.1138" y1="25.3357" x2="36.1138" y2="32.1574" gradientUnits="userSpaceOnUse">
<stop stop-color="#925FE2"/>
<stop offset="1" stop-color="#E2D4F7"/>
</linearGradient>
<linearGradient id="paint3_linear_236_69" x1="13.023" y1="30.9938" x2="13.023" y2="33.1658" gradientUnits="userSpaceOnUse">
<stop stop-color="#925FE2"/>
<stop offset="1" stop-color="#E2D4F7"/>
</linearGradient>
<linearGradient id="paint4_linear_236_69" x1="8.72971" y1="7.11951" x2="8.72971" y2="8.55502" gradientUnits="userSpaceOnUse">
<stop stop-color="#9C6FE4"/>
<stop offset="1" stop-color="#9C6FE4"/>
</linearGradient>
<linearGradient id="paint5_linear_236_69" x1="16.319" y1="7.49927" x2="16.319" y2="10.9476" gradientUnits="userSpaceOnUse">
<stop stop-color="#9C6FE4"/>
<stop offset="1" stop-color="#9C6FE4"/>
</linearGradient>
<linearGradient id="paint6_linear_236_69" x1="6.44505" y1="6.67236" x2="6.44505" y2="8.17629" gradientUnits="userSpaceOnUse">
<stop stop-color="#9C6FE4"/>
<stop offset="1" stop-color="#9C6FE4"/>
</linearGradient>
<linearGradient id="paint7_linear_236_69" x1="26.6329" y1="10.3456" x2="26.6329" y2="11.9492" gradientUnits="userSpaceOnUse">
<stop stop-color="#9C6FE4"/>
<stop offset="1" stop-color="#9C6FE4"/>
</linearGradient>
<linearGradient id="paint8_linear_236_69" x1="23.9041" y1="9.93579" x2="23.9041" y2="11.3666" gradientUnits="userSpaceOnUse">
<stop stop-color="#9C6FE4"/>
<stop offset="1" stop-color="#9C6FE4"/>
</linearGradient>
<linearGradient id="paint9_linear_236_69" x1="35.5799" y1="5.03247" x2="35.5799" y2="16.0893" gradientUnits="userSpaceOnUse">
<stop stop-color="#925FE2"/>
<stop offset="1" stop-color="#E2D4F7"/>
</linearGradient>
<linearGradient id="paint10_linear_236_69" x1="35.3922" y1="13.8842" x2="35.3922" y2="26.7254" gradientUnits="userSpaceOnUse">
<stop stop-color="#925FE2"/>
<stop offset="1" stop-color="#E2D4F7"/>
</linearGradient>
</defs>
</svg>
